<svg width="30" height="30" viewBox="0 0 30 30" fill="none" xmlns="http://www.w3.org/2000/svg">
<path d="M5 15C5 10.286 5 7.92893 6.46447 6.46447C7.92893 5 10.286 5 15 5C19.714 5 22.0711 5 23.5355 6.46447C25 7.92893 25 10.286 25 15C25 19.714 25 22.0711 23.5355 23.5355C22.0711 25 19.714 25 15 25C10.286 25 7.92893 25 6.46447 23.5355C5 22.0711 5 19.714 5 15Z" stroke="white" stroke-width="2.5"/>
<path d="M18 16.25C18.6904 16.25 19.25 15.6904 19.25 15C19.25 14.3097 18.6904 13.75 18 13.75L18 16.25ZM12 13.75C11.3096 13.75 10.75 14.3097 10.75 15C10.75 15.6904 11.3096 16.25 12 16.25L12 13.75ZM16.25 12C16.25 11.3096 15.6904 10.75 15 10.75C14.3096 10.75 13.75 11.3096 13.75 12L16.25 12ZM13.75 18C13.75 18.6904 14.3096 19.25 15 19.25C15.6904 19.25 16.25 18.6904 16.25 18L13.75 18ZM18 13.75L15 13.75V16.25L18 16.25L18 13.75ZM15 13.75L12 13.75L12 16.25H15L15 13.75ZM13.75 12L13.75 15L16.25 15V12L13.75 12ZM13.75 15L13.75 18L16.25 18L16.25 15L13.75 15Z" fill="white"/>
</svg>
