<svg width="32" height="32" viewBox="0 0 32 32" fill="none" xmlns="http://www.w3.org/2000/svg">
<path d="M29.7357 2.26433C28.0499 0.578557 25.3167 0.578557 23.6309 2.26433L16.7631 9.13217C16.3417 9.55361 15.6584 9.55361 15.2369 9.13217L8.36908 2.26433C6.6833 0.578556 3.95011 0.578555 2.26434 2.26433C0.578557 3.95011 0.578557 6.6833 2.26433 8.36907L9.13217 15.2369C9.55361 15.6584 9.55361 16.3416 9.13217 16.7631L2.26433 23.6309C0.578555 25.3167 0.578556 28.0499 2.26433 29.7357C3.95011 31.4214 6.6833 31.4214 8.36907 29.7357L15.2369 22.8678C15.6584 22.4464 16.3416 22.4464 16.7631 22.8678L23.6309 29.7357C25.3167 31.4214 28.0499 31.4214 29.7357 29.7357C31.4214 28.0499 31.4214 25.3167 29.7357 23.6309L22.8678 16.7631C22.4464 16.3416 22.4464 15.6584 22.8678 15.2369L29.7357 8.36907C31.4214 6.6833 31.4214 3.95011 29.7357 2.26433Z" stroke="#F5F7F9" stroke-width="2"/>
</svg>
