<svg width="27" height="27" viewBox="0 0 27 27" fill="none" xmlns="http://www.w3.org/2000/svg">
<path d="M5.01648 18.3263C3.21336 16.5232 2.3118 15.6216 1.97633 14.4519C1.64086 13.2822 1.92756 12.0398 2.50095 9.55513L2.83161 8.12225C3.31401 6.03186 3.55521 4.98666 4.27094 4.27094C4.98666 3.55521 6.03186 3.31401 8.12225 2.83162L9.55513 2.50095C12.0398 1.92756 13.2822 1.64086 14.4519 1.97633C15.6216 2.3118 16.5232 3.21336 18.3263 5.01648L20.4609 7.15106C23.598 10.2882 25.1666 11.8568 25.1666 13.806C25.1666 15.7551 23.598 17.3237 20.4609 20.4609C17.3237 23.598 15.7551 25.1666 13.806 25.1666C11.8568 25.1666 10.2882 23.598 7.15106 20.4609L5.01648 18.3263Z" stroke="#1C274C" stroke-width="2.5"/>
<path d="M17.4543 17.4543C18.1377 16.7708 18.23 15.7551 17.6605 15.1856C17.091 14.6161 16.0753 14.7084 15.3919 15.3919C14.7085 16.0753 13.6928 16.1676 13.1233 15.5981C12.5537 15.0286 12.6461 14.0129 13.3295 13.3295M17.4543 17.4543L17.8668 17.8667M17.4543 17.4543C16.9865 17.9221 16.3629 18.1129 15.8334 18.0041M12.917 12.917L13.3295 13.3295M13.3295 13.3295C13.7159 12.943 14.2086 12.7456 14.6667 12.7499" stroke="#1C274C" stroke-width="2" stroke-linecap="round"/>
<circle cx="9.29983" cy="9.2998" r="2.33333" transform="rotate(-45 9.29983 9.2998)" stroke="#1C274C" stroke-width="2"/>
</svg>
