<svg width="24" height="24" viewBox="0 0 24 24" fill="none" xmlns="http://www.w3.org/2000/svg">
<circle cx="12" cy="12" r="11" fill="#F5F7F9" stroke="#F23535" stroke-width="2"/>
<path d="M12.0003 15.1035C11.7957 15.1035 11.5957 15.1642 11.4256 15.2778C11.2555 15.3915 11.1229 15.5531 11.0446 15.7421C10.9663 15.9311 10.9458 16.1391 10.9857 16.3398C11.0256 16.5405 11.1241 16.7248 11.2688 16.8695C11.4135 17.0141 11.5978 17.1127 11.7985 17.1526C11.9992 17.1925 12.2072 17.172 12.3962 17.0937C12.5852 17.0154 12.7468 16.8828 12.8604 16.7127C12.9741 16.5426 13.0348 16.3426 13.0348 16.138C13.0348 15.8636 12.9258 15.6005 12.7318 15.4065C12.5378 15.2125 12.2747 15.1035 12.0003 15.1035ZM12.0003 6.82764C11.7259 6.82764 11.4628 6.93663 11.2688 7.13063C11.0748 7.32463 10.9658 7.58776 10.9658 7.86212V13.0345C10.9658 13.3089 11.0748 13.572 11.2688 13.766C11.4628 13.96 11.7259 14.069 12.0003 14.069C12.2747 14.069 12.5378 13.96 12.7318 13.766C12.9258 13.572 13.0348 13.3089 13.0348 13.0345V7.86212C13.0348 7.58776 12.9258 7.32463 12.7318 7.13063C12.5378 6.93663 12.2747 6.82764 12.0003 6.82764Z" fill="#F23535"/>
</svg>
