<svg width="36" height="36" viewBox="0 0 36 36" fill="none" xmlns="http://www.w3.org/2000/svg">
<path d="M3 19.8045C3 19.6765 3 19.6125 3.00351 19.5585C3.05783 18.7232 3.72324 18.0578 4.55852 18.0035C4.61254 18 4.67651 18 4.80446 18H31.1955C31.3235 18 31.3875 18 31.4415 18.0035C32.2768 18.0578 32.9422 18.7232 32.9965 19.5585C33 19.6125 33 19.6765 33 19.8045C33 20.4639 33 20.7936 32.9766 21.1628C32.6288 26.6424 27.9716 31.4778 22.5089 32.0311C22.1409 32.0683 21.9263 32.0764 21.4969 32.0925C20.2734 32.1385 19.0822 32.1667 18 32.1667C16.9178 32.1667 15.7266 32.1385 14.5031 32.0925C14.0737 32.0764 13.8591 32.0683 13.4911 32.0311C8.02841 31.4778 3.3712 26.6424 3.02343 21.1628C3 20.7936 3 20.4639 3 19.8045Z" stroke="black" stroke-width="2.5"/>
<path d="M7.99992 31.3335L6.33325 34.6668" stroke="black" stroke-width="2.5" stroke-linecap="round"/>
<path d="M28.0001 31.3335L29.6667 34.6668" stroke="black" stroke-width="2.5" stroke-linecap="round"/>
<path d="M1.33325 18H34.6666" stroke="black" stroke-width="2.5" stroke-linecap="round"/>
<path d="M1.75 19.6668C1.75 20.3572 2.30964 20.9168 3 20.9168C3.69036 20.9168 4.25 20.3572 4.25 19.6668H1.75ZM10.6662 3.83239L11.8268 3.36815V3.36815L10.6662 3.83239ZM11.2981 5.41205L11.8452 6.53595L11.2981 5.41205ZM8.60353 8.3207L9.76168 8.79102L8.60353 8.3207ZM15.6283 5.29655L15.1373 6.44604L15.6283 5.29655ZM8.57598 12.5694L7.41301 13.0277C7.53702 13.3424 7.78329 13.5934 8.09559 13.7234C8.40788 13.8534 8.75954 13.8513 9.07025 13.7176L8.57598 12.5694ZM18.5106 8.29263L19.0048 9.44076C19.625 9.17378 19.9211 8.46257 19.6735 7.83438L18.5106 8.29263ZM4.25 19.6668V5.30877H1.75V19.6668H4.25ZM6.97527 2.5835C8.08965 2.5835 9.09176 3.26196 9.50563 4.29663L11.8268 3.36815C11.0333 1.38433 9.11191 0.0834961 6.97527 0.0834961V2.5835ZM4.25 5.30877C4.25 3.80364 5.47015 2.5835 6.97527 2.5835V0.0834961C4.08944 0.0834961 1.75 2.42293 1.75 5.30877H4.25ZM9.50563 4.29663L10.1375 5.87629L12.4587 4.94782L11.8268 3.36815L9.50563 4.29663ZM9.73896 12.1112C9.33612 11.0889 9.31064 9.9017 9.76168 8.79102L7.44538 7.85039C6.74487 9.57541 6.78265 11.4279 7.41301 13.0277L9.73896 12.1112ZM18.0163 7.1445L8.08172 11.4213L9.07025 13.7176L19.0048 9.44076L18.0163 7.1445ZM15.1373 6.44604C16.1732 6.88862 16.945 7.72918 17.3476 8.75088L19.6735 7.83438C19.0429 6.23398 17.8116 4.86998 16.1194 4.14705L15.1373 6.44604ZM9.76168 8.79102C10.1853 7.74783 10.9471 6.97316 11.8452 6.53595L10.751 4.28815C9.30562 4.99176 8.10421 6.22801 7.44538 7.85039L9.76168 8.79102ZM11.8452 6.53595C12.8575 6.04315 14.0418 5.97803 15.1373 6.44604L16.1194 4.14705C14.3231 3.37964 12.3812 3.49452 10.751 4.28815L11.8452 6.53595Z" fill="black"/>
</svg>
