<svg width="40" height="40" viewBox="0 0 40 40" fill="none" xmlns="http://www.w3.org/2000/svg">
<circle cx="20" cy="20" r="20" fill="#192A39"/>
<path d="M20 8.00049C17.6681 8.00491 15.3879 8.68677 13.437 9.963C11.4861 11.2392 9.94878 13.0548 9.01226 15.1884C8.07573 17.3221 7.78044 19.6819 8.16235 21.9802C8.54425 24.2786 9.58687 26.4164 11.1632 28.1333C12.2891 29.3526 13.6555 30.3257 15.1764 30.9913C16.6972 31.6569 18.3396 32.0005 20 32.0005C21.6604 32.0005 23.3028 31.6569 24.8236 30.9913C26.3445 30.3257 27.7109 29.3526 28.8368 28.1333C30.4131 26.4164 31.4557 24.2786 31.8377 21.9802C32.2196 19.6819 31.9243 17.3221 30.9877 15.1884C30.0512 13.0548 28.5139 11.2392 26.563 9.963C24.6121 8.68677 22.3319 8.00491 20 8.00049ZM20 29.6228C17.5094 29.6191 15.1174 28.6502 13.3273 26.92C13.8708 25.5981 14.7954 24.4675 15.9835 23.6718C17.1716 22.876 18.5697 22.4512 20 22.4512C21.4303 22.4512 22.8284 22.876 24.0165 23.6718C25.2046 24.4675 26.1292 25.5981 26.6727 26.92C24.8826 28.6502 22.4906 29.6191 20 29.6228ZM17.5954 17.6104C17.5954 17.1353 17.7365 16.6708 18.0007 16.2757C18.2649 15.8806 18.6404 15.5727 19.0798 15.3908C19.5192 15.209 20.0027 15.1614 20.4691 15.2541C20.9355 15.3468 21.364 15.5756 21.7003 15.9116C22.0366 16.2476 22.2656 16.6757 22.3584 17.1417C22.4511 17.6078 22.4035 18.0908 22.2215 18.5298C22.0395 18.9688 21.7313 19.344 21.3359 19.608C20.9405 19.872 20.4756 20.0129 20 20.0129C19.3623 20.0129 18.7507 19.7598 18.2997 19.3092C17.8488 18.8587 17.5954 18.2476 17.5954 17.6104ZM28.3078 24.8179C27.2336 22.9821 25.5803 21.5541 23.6068 20.7577C24.219 20.0641 24.6179 19.2089 24.7556 18.2945C24.8933 17.38 24.764 16.4454 24.3832 15.6025C24.0024 14.7597 23.3863 14.0446 22.6088 13.543C21.8314 13.0413 20.9255 12.7745 20 12.7745C19.0745 12.7745 18.1686 13.0413 17.3912 13.543C16.6137 14.0446 15.9976 14.7597 15.6168 15.6025C15.236 16.4454 15.1067 17.38 15.2444 18.2945C15.3821 19.2089 15.781 20.0641 16.3931 20.7577C14.4197 21.5541 12.7664 22.9821 11.6922 24.8179C10.8361 23.3609 10.3838 21.7024 10.3817 20.0129C10.3817 17.4642 11.3951 15.0199 13.1989 13.2177C15.0026 11.4154 17.4491 10.403 20 10.403C22.5509 10.403 24.9974 11.4154 26.8011 13.2177C28.6049 15.0199 29.6183 17.4642 29.6183 20.0129C29.6162 21.7024 29.1639 23.3609 28.3078 24.8179Z" fill="#F5F7F9"/>
</svg>
