<svg width="40" height="40" viewBox="0 0 40 40" fill="none" xmlns="http://www.w3.org/2000/svg">
<circle cx="20" cy="20" r="20" fill="#F23535"/>
<path d="M22.1365 20.9253C22.741 20.382 23.2259 19.7099 23.5582 18.9548C23.8906 18.1996 24.0626 17.3791 24.0626 16.5489C24.0626 14.9888 23.4657 13.4926 22.4033 12.3894C21.3409 11.2863 19.9 10.6665 18.3975 10.6665C16.8951 10.6665 15.4542 11.2863 14.3918 12.3894C13.3294 13.4926 12.7325 14.9888 12.7325 16.5489C12.7325 17.3791 12.9045 18.1996 13.2368 18.9548C13.5692 19.7099 14.0541 20.382 14.6586 20.9253C13.0726 21.6711 11.7269 22.8754 10.7826 24.3942C9.83824 25.913 9.33516 27.6822 9.3335 29.49C9.3335 29.8021 9.45287 30.1013 9.66535 30.3219C9.87783 30.5426 10.166 30.6665 10.4665 30.6665C10.767 30.6665 11.0552 30.5426 11.2677 30.3219C11.4801 30.1013 11.5995 29.8021 11.5995 29.49C11.5995 27.6179 12.3157 25.8225 13.5906 24.4987C14.8655 23.1749 16.5946 22.4312 18.3975 22.4312C20.2005 22.4312 21.9296 23.1749 23.2045 24.4987C24.4793 25.8225 25.1956 27.6179 25.1956 29.49C25.1956 29.8021 25.3149 30.1013 25.5274 30.3219C25.7399 30.5426 26.0281 30.6665 26.3286 30.6665C26.6291 30.6665 26.9172 30.5426 27.1297 30.3219C27.3422 30.1013 27.4616 29.8021 27.4616 29.49C27.4599 27.6822 26.9568 25.913 26.0125 24.3942C25.0681 22.8754 23.7225 21.6711 22.1365 20.9253ZM18.3975 20.0783C17.7253 20.0783 17.0681 19.8713 16.5091 19.4835C15.9502 19.0956 15.5145 18.5444 15.2573 17.8995C15 17.2546 14.9327 16.5449 15.0638 15.8603C15.195 15.1757 15.5187 14.5468 15.9941 14.0532C16.4694 13.5596 17.0751 13.2234 17.7344 13.0873C18.3938 12.9511 19.0772 13.021 19.6983 13.2881C20.3194 13.5552 20.8502 14.0076 21.2237 14.588C21.5972 15.1684 21.7965 15.8508 21.7965 16.5489C21.7965 17.4849 21.4384 18.3826 20.801 19.0445C20.1636 19.7064 19.299 20.0783 18.3975 20.0783ZM30.7586 20.6665L31.665 19.7371C31.7707 19.6274 31.8545 19.4972 31.9116 19.3539C31.9688 19.2105 31.9982 19.0569 31.9982 18.9018C31.9982 18.7467 31.9688 18.5931 31.9116 18.4497C31.8545 18.3064 31.7707 18.1762 31.665 18.0665C31.5594 17.9568 31.434 17.8698 31.2959 17.8104C31.1579 17.7511 31.01 17.7205 30.8606 17.7205C30.7112 17.7205 30.5633 17.7511 30.4252 17.8104C30.2872 17.8698 30.1618 17.9568 30.0562 18.0665L29.1611 19.0077L28.266 18.0665C28.1604 17.9568 28.035 17.8698 27.8969 17.8104C27.7589 17.7511 27.611 17.7205 27.4616 17.7205C27.1599 17.7205 26.8705 17.845 26.6571 18.0665C26.5515 18.1762 26.4677 18.3064 26.4105 18.4497C26.3534 18.5931 26.3239 18.7467 26.3239 18.9018C26.3239 19.2151 26.4438 19.5156 26.6571 19.7371L27.5635 20.6665L26.6571 21.5959C26.5509 21.7053 26.4667 21.8354 26.4091 21.9788C26.3516 22.1221 26.322 22.2759 26.322 22.4312C26.322 22.5865 26.3516 22.7403 26.4091 22.8837C26.4667 23.027 26.5509 23.1571 26.6571 23.2665C26.7625 23.3768 26.8878 23.4643 27.0258 23.524C27.1639 23.5838 27.312 23.6145 27.4616 23.6145C27.6111 23.6145 27.7592 23.5838 27.8973 23.524C28.0354 23.4643 28.1607 23.3768 28.266 23.2665L29.1611 22.3253L30.0562 23.2665C30.1615 23.3768 30.2868 23.4643 30.4249 23.524C30.5629 23.5838 30.711 23.6145 30.8606 23.6145C31.0102 23.6145 31.1582 23.5838 31.2963 23.524C31.4344 23.4643 31.5597 23.3768 31.665 23.2665C31.7712 23.1571 31.8555 23.027 31.913 22.8837C31.9705 22.7403 32.0002 22.5865 32.0002 22.4312C32.0002 22.2759 31.9705 22.1221 31.913 21.9788C31.8555 21.8354 31.7712 21.7053 31.665 21.5959L30.7586 20.6665Z" fill="#F5F7F9"/>
</svg>
