<svg width="40" height="40" viewBox="0 0 40 40" fill="none" xmlns="http://www.w3.org/2000/svg">
<circle cx="20" cy="20" r="20" fill="#192A39"/>
<path d="M16.3 15.0879C15.7477 15.0879 15.3 15.5356 15.3 16.0879C15.3 16.6402 15.7477 17.0879 16.3 17.0879V15.0879ZM24.7 17.0879C25.2523 17.0879 25.7 16.6402 25.7 16.0879C25.7 15.5356 25.2523 15.0879 24.7 15.0879V17.0879ZM16.3 19.1582C15.7477 19.1582 15.3 19.606 15.3 20.1582C15.3 20.7105 15.7477 21.1582 16.3 21.1582V19.1582ZM20.5 21.1582C21.0523 21.1582 21.5 20.7105 21.5 20.1582C21.5 19.606 21.0523 19.1582 20.5 19.1582V21.1582ZM30.7711 24.1349L31.6562 24.6003L31.6562 24.6003L30.7711 24.1349ZM29.8534 25.0243L30.2961 25.921L30.2961 25.921L29.8534 25.0243ZM29.8534 11.2218L30.2961 10.3252L30.2961 10.3252L29.8534 11.2218ZM30.7711 12.1112L31.6562 11.6459L31.6562 11.6459L30.7711 12.1112ZM11.1466 11.2218L11.5894 12.1185L11.5894 12.1185L11.1466 11.2218ZM10.2289 12.1112L11.114 12.5766L11.114 12.5766L10.2289 12.1112ZM11.2677 28.6918L11.8326 29.517L11.8327 29.5169L11.2677 28.6918ZM15.4284 25.843L14.8634 25.0178L14.8634 25.0178L15.4284 25.843ZM10.0948 28.7849L10.9057 28.1996L10.9057 28.1996L10.0948 28.7849ZM11.1585 28.7551L10.7229 27.855L10.7229 27.855L11.1585 28.7551ZM10.4483 28.9966L10.3065 29.9865L10.3065 29.9865L10.4483 28.9966ZM11.2283 28.7181L10.7011 27.8684L10.701 27.8684L11.2283 28.7181ZM11.2009 28.734L10.7255 27.8542L10.7255 27.8543L11.2009 28.734ZM16.5817 25.2807L16.7597 26.2647L16.7597 26.2647L16.5817 25.2807ZM16.0905 25.4319L16.4972 26.3455L16.4972 26.3455L16.0905 25.4319ZM16.3 17.0879H24.7V15.0879H16.3V17.0879ZM16.3 21.1582H20.5V19.1582H16.3V21.1582ZM13.36 12H27.64V10H13.36V12ZM30 14.2563V21.9899H32V14.2563H30ZM30 21.9899C30 22.5768 29.9992 22.955 29.9749 23.2426C29.9517 23.5176 29.9125 23.6191 29.886 23.6696L31.6562 24.6003C31.8586 24.2154 31.9338 23.8143 31.9679 23.4106C32.0008 23.0195 32 22.5428 32 21.9899H30ZM27.64 26.2462C28.2121 26.2462 28.6994 26.2469 29.0982 26.2153C29.5078 26.1829 29.9099 26.1117 30.2961 25.921L29.4106 24.1277C29.3477 24.1588 29.2311 24.1985 28.9403 24.2216C28.6388 24.2454 28.2441 24.2462 27.64 24.2462V26.2462ZM29.886 23.6696C29.7848 23.862 29.6203 24.0242 29.4106 24.1277L30.2961 25.921C30.8768 25.6343 31.3547 25.1738 31.6562 24.6003L29.886 23.6696ZM27.64 12C28.2441 12 28.6388 12.0007 28.9403 12.0246C29.2311 12.0476 29.3477 12.0874 29.4106 12.1185L30.2961 10.3252C29.9099 10.1344 29.5078 10.0633 29.0982 10.0308C28.6994 9.99927 28.2121 10 27.64 10V12ZM32 14.2563C32 13.7034 32.0008 13.2267 31.9679 12.8356C31.9338 12.4318 31.8586 12.0307 31.6562 11.6459L29.886 12.5766C29.9125 12.6271 29.9517 12.7286 29.9749 13.0036C29.9992 13.2912 30 13.6693 30 14.2563H32ZM29.4106 12.1185C29.6203 12.222 29.7848 12.3842 29.886 12.5766L31.6562 11.6459C31.3547 11.0724 30.8768 10.6119 30.2961 10.3252L29.4106 12.1185ZM13.36 10C12.7879 10 12.3006 9.99927 11.9018 10.0308C11.4922 10.0633 11.0901 10.1344 10.7039 10.3252L11.5894 12.1185C11.6523 12.0874 11.7689 12.0476 12.0597 12.0246C12.3612 12.0007 12.7559 12 13.36 12V10ZM11 14.2563C11 13.6693 11.0008 13.2912 11.0251 13.0036C11.0483 12.7286 11.0875 12.6271 11.114 12.5766L9.34376 11.6459C9.14142 12.0307 9.06618 12.4318 9.03215 12.8356C8.99917 13.2267 9 13.7034 9 14.2563H11ZM10.7039 10.3252C10.1232 10.6119 9.64528 11.0724 9.34376 11.6459L11.114 12.5766C11.2152 12.3842 11.3797 12.222 11.5894 12.1185L10.7039 10.3252ZM27.64 24.2462H17.3672V26.2462H27.64V24.2462ZM11.8327 29.5169L15.9933 26.6681L14.8634 25.0178L10.7027 27.8667L11.8327 29.5169ZM9 27.9993C9 28.1973 8.99894 28.4168 9.01628 28.6004C9.03362 28.784 9.0795 29.0868 9.2839 29.3701L10.9057 28.1996C10.9613 28.2768 10.9881 28.3471 11 28.3882C11.0106 28.4244 11.0099 28.4388 11.0074 28.4124C11.005 28.3867 11.0026 28.3436 11.0013 28.2699C11 28.1967 11 28.1109 11 27.9993H9ZM10.7229 27.855C10.6314 27.8993 10.5603 27.9333 10.5002 27.9608C10.4396 27.9885 10.4033 28.0033 10.3819 28.0111C10.36 28.0191 10.3711 28.0132 10.4042 28.0075C10.4413 28.0012 10.5069 27.9948 10.59 28.0067L10.3065 29.9865C10.6259 30.0322 10.8973 29.9521 11.068 29.8897C11.2373 29.8279 11.4243 29.7374 11.5941 29.6552L10.7229 27.855ZM9.2839 29.3701C9.52916 29.7099 9.90112 29.9284 10.3065 29.9865L10.59 28.0067C10.7097 28.0238 10.8259 28.0892 10.9057 28.1996L9.2839 29.3701ZM11 27.9993V14.2563H9V27.9993H11ZM10.7029 27.8666C10.6977 27.8701 10.6943 27.8725 10.6913 27.8745C10.6884 27.8765 10.6872 27.8773 10.687 27.8774C10.6869 27.8775 10.6926 27.8737 10.7011 27.8684L11.7555 29.5679C11.7891 29.547 11.8202 29.5254 11.8326 29.517L10.7029 27.8666ZM11.5941 29.6553C11.608 29.6485 11.6418 29.6324 11.6764 29.6137L10.7255 27.8543C10.7341 27.8496 10.7401 27.8466 10.7401 27.8466C10.7398 27.8467 10.7386 27.8474 10.7354 27.8489C10.7323 27.8504 10.7285 27.8523 10.7229 27.855L11.5941 29.6553ZM10.701 27.8684C10.7091 27.8634 10.7172 27.8587 10.7255 27.8542L11.6764 29.6137C11.7032 29.5993 11.7297 29.5839 11.7557 29.5678L10.701 27.8684ZM17.3672 24.2462C17.006 24.2462 16.7033 24.2425 16.4037 24.2967L16.7597 26.2647C16.8421 26.2498 16.9358 26.2462 17.3672 26.2462V24.2462ZM15.9933 26.6681C16.3461 26.4265 16.4229 26.3786 16.4972 26.3455L15.6839 24.5183C15.405 24.6424 15.158 24.8161 14.8634 25.0178L15.9933 26.6681ZM16.4037 24.2967C16.1558 24.3415 15.914 24.4159 15.6839 24.5183L16.4972 26.3455C16.5804 26.3084 16.6686 26.2812 16.7597 26.2647L16.4037 24.2967Z" fill="#F5F7F9"/>
</svg>
