<svg width="23" height="22" viewBox="0 0 23 22" fill="none" xmlns="http://www.w3.org/2000/svg">
<path d="M22 4.9378V14.7031C22 15.7456 22 16.2669 21.8093 16.6651C21.6415 17.0153 21.3738 17.3001 21.0445 17.4786C20.6701 17.6814 20.1801 17.6814 19.2 17.6814C18.8134 17.6814 18.5 18.0084 18.5 18.4117V19.5356C18.5 19.9196 18.0781 20.1371 17.7858 19.9038L16.004 18.4824C15.6316 18.1853 15.4454 18.0368 15.2397 17.9312C15.0571 17.8376 14.8637 17.7693 14.6642 17.728C14.4393 17.6814 14.2049 17.6814 13.7361 17.6814H9.16664M3.8 1H15.7C16.6801 1 17.1701 1 17.5445 1.20289C17.8738 1.38135 18.1415 1.66611 18.3093 2.01637C18.5 2.41455 18.5 2.93581 18.5 3.97832V11.0518C18.5 12.0943 18.5 12.6156 18.3093 13.0138C18.1415 13.364 17.8738 13.6488 17.5445 13.8273C17.1701 14.0301 16.6801 14.0301 15.7 14.0301H9.26386C8.79507 14.0301 8.56068 14.0301 8.33583 14.0767C8.13633 14.118 7.94285 14.1863 7.76032 14.2799C7.55462 14.3855 7.36842 14.534 6.99604 14.8311L5.21424 16.2525C4.92187 16.4858 4.5 16.2683 4.5 15.8843V14.7604C4.5 14.3571 4.1866 14.0301 3.8 14.0301C2.81991 14.0301 2.32986 14.0301 1.95552 13.8273C1.62623 13.6488 1.35852 13.364 1.19074 13.0138C1 12.6156 1 12.0943 1 11.0518V3.97832C1 2.93581 1 2.41455 1.19074 2.01637C1.35852 1.66611 1.62623 1.38135 1.95552 1.20289C2.32986 1 2.81991 1 3.8 1Z" stroke="#192A39" stroke-width="2" stroke-linecap="round"/>
</svg>
