<svg width="27" height="27" viewBox="0 0 27 27" fill="none" xmlns="http://www.w3.org/2000/svg">
<path d="M5.01673 18.3263C3.2136 16.5232 2.31204 15.6216 1.97657 14.4519C1.64111 13.2822 1.9278 12.0398 2.50119 9.55513L2.83186 8.12225C3.31426 6.03186 3.55546 4.98666 4.27118 4.27094C4.98691 3.55521 6.0321 3.31401 8.12249 2.83162L9.55537 2.50095C12.0401 1.92756 13.2824 1.64086 14.4521 1.97633C15.6218 2.3118 16.5234 3.21336 18.3265 5.01648L20.4611 7.15106C23.5983 10.2882 25.1668 11.8568 25.1668 13.806C25.1668 15.7551 23.5983 17.3237 20.4611 20.4609C17.324 23.598 15.7554 25.1666 13.8062 25.1666C11.857 25.1666 10.2885 23.598 7.1513 20.4609L5.01673 18.3263Z" stroke="#1C274C" stroke-width="2.5"/>
<circle cx="9.54153" cy="9.85889" r="2.33333" transform="rotate(-45 9.54153 9.85889)" stroke="#1C274C" stroke-width="2.5"/>
<path d="M12.9651 21.083L21.1073 12.9406" stroke="#1C274C" stroke-width="2.5" stroke-linecap="round"/>
</svg>
