<svg width="30" height="30" viewBox="0 0 30 30" fill="none" xmlns="http://www.w3.org/2000/svg">
<path fill-rule="evenodd" clip-rule="evenodd" d="M2.5 6.25H27.5V8.45492L15 14.7049L2.5 8.45492V6.25ZM0 6.25C0 4.86929 1.11929 3.75 2.5 3.75H27.5C28.8807 3.75 30 4.86929 30 6.25V10V22.5C30 24.5711 28.3211 26.25 26.25 26.25H3.75C1.67893 26.25 0 24.5711 0 22.5V10V6.25ZM2.5 11.25V22.5C2.5 23.1904 3.05964 23.75 3.75 23.75H26.25C26.9404 23.75 27.5 23.1904 27.5 22.5V11.25L15 17.5L2.5 11.25Z" fill="#606060"/>
</svg>
