<svg width="18" height="20" viewBox="0 0 18 20" fill="none" xmlns="http://www.w3.org/2000/svg">
<path d="M11.9091 5.10368L9.87909 1.5033C9.50217 0.834801 8.55671 0.831602 8.17544 1.49754L6.03334 5.23899C5.74961 5.73456 5.27118 6.0826 4.71902 6.19512L1.79209 6.79155C1.03403 6.94602 0.738639 7.88977 1.26898 8.46287L3.38597 10.7505C3.83866 11.2397 4.02067 11.9274 3.87072 12.5822L2.91251 16.7663C2.71553 17.6264 3.62706 18.3072 4.37281 17.8569L8.02859 15.6497C8.64738 15.276 9.41692 15.276 10.0357 15.6497L13.6915 17.8569C14.4372 18.3072 15.3488 17.6264 15.1518 16.7663L14.1852 12.5455C14.0399 11.9111 14.2061 11.2442 14.6309 10.7573L16.7505 8.32777C17.2555 7.7489 16.9533 6.83005 16.2079 6.67816L13.23 6.07133C12.6733 5.95791 12.1919 5.60518 11.9091 5.10368Z" stroke="#192A39" stroke-width="2" stroke-miterlimit="10"/>
</svg>
