<svg width="36" height="26" viewBox="0 0 36 26" fill="none" xmlns="http://www.w3.org/2000/svg">
<path d="M7.25918 22.9998H28.7407C32.0135 22.9998 34.6666 20.3467 34.6666 17.0739V12.9998C34.6666 11.1589 33.1742 9.6665 31.3333 9.6665C29.4923 9.6665 27.9999 11.1589 27.9999 12.9998V14.9998C27.9999 15.7362 27.403 16.3332 26.6666 16.3332H9.33325C8.59687 16.3332 7.99992 15.7362 7.99992 14.9998V12.9998C7.99992 11.1589 6.50753 9.6665 4.66659 9.6665C2.82564 9.6665 1.33325 11.1589 1.33325 12.9998V17.0739C1.33325 20.3467 3.98638 22.9998 7.25918 22.9998Z" stroke="black" stroke-width="2.5"/>
<path d="M31.3334 9.66683C31.3334 8.11798 31.3334 7.34355 31.2053 6.69956C30.6793 4.05496 28.612 1.98764 25.9673 1.46159C25.3234 1.3335 24.5489 1.3335 23.0001 1.3335H13.0001C11.4512 1.3335 10.6768 1.3335 10.0328 1.46159C7.38821 1.98764 5.32089 4.05496 4.79485 6.69956C4.66675 7.34355 4.66675 8.11798 4.66675 9.66683" stroke="black" stroke-width="2.5"/>
<path d="M31.3334 24.6667V23M4.66675 24.6667V23" stroke="black" stroke-width="2.5" stroke-linecap="round"/>
</svg>
