<svg width="36" height="30" viewBox="0 0 36 30" fill="none" xmlns="http://www.w3.org/2000/svg">
<path d="M6.29797 11.1416C2.98816 9.81771 1.33325 9.15575 1.33325 8.33317C1.33325 7.51059 2.98816 6.84863 6.29797 5.5247L10.9787 3.65239C14.2886 2.32847 15.9435 1.6665 17.9999 1.6665C20.0564 1.6665 21.7113 2.32847 25.0211 3.65239L29.7019 5.5247C33.0117 6.84863 34.6666 7.51059 34.6666 8.33317C34.6666 9.15575 33.0117 9.81771 29.7019 11.1416L25.0211 13.014C21.7113 14.3379 20.0564 14.9998 17.9999 14.9998C15.9435 14.9998 14.2886 14.3379 10.9787 13.014L6.29797 11.1416Z" stroke="black" stroke-width="2.5"/>
<path d="M34.6666 15C34.6666 15 33.0117 16.4845 29.7019 17.8085L25.0211 19.6808C21.7113 21.0047 20.0564 21.6667 17.9999 21.6667C15.9435 21.6667 14.2886 21.0047 10.9787 19.6808L6.29797 17.8085C2.98816 16.4845 1.33325 15 1.33325 15" stroke="black" stroke-width="2.5" stroke-linecap="round"/>
<path d="M34.6666 21.6665C34.6666 21.6665 33.0117 23.151 29.7019 24.475L25.0211 26.3473C21.7113 27.6712 20.0564 28.3332 17.9999 28.3332C15.9435 28.3332 14.2886 27.6712 10.9787 26.3473L6.29797 24.475C2.98816 23.151 1.33325 21.6665 1.33325 21.6665" stroke="black" stroke-width="2.5" stroke-linecap="round"/>
</svg>
