<svg width="20" height="26" viewBox="0 0 20 26" fill="none" xmlns="http://www.w3.org/2000/svg">
<path fill-rule="evenodd" clip-rule="evenodd" d="M6.25 6.64593C6.25 4.59949 7.92893 2.94053 10 2.94053C12.0711 2.94053 13.75 4.59949 13.75 6.64593C13.75 8.69236 12.0711 10.3513 10 10.3513C7.92893 10.3513 6.25 8.69236 6.25 6.64593ZM10 0.470264C6.54822 0.470264 3.75 3.2352 3.75 6.64593C3.75 10.0567 6.54822 12.8216 10 12.8216C13.4518 12.8216 16.25 10.0567 16.25 6.64593C16.25 3.2352 13.4518 0.470264 10 0.470264ZM2.5 23.9378C2.5 19.8449 5.85786 16.527 10 16.527C14.1421 16.527 17.5 19.8449 17.5 23.9378C17.5 24.6199 18.053 25.1729 18.7351 25.1729H18.7649C19.447 25.1729 20 24.6199 20 23.9378C20 18.4806 15.5228 14.0567 10 14.0567C4.47715 14.0567 0 18.4806 0 23.9378C0 24.6199 0.552988 25.1729 1.23513 25.1729H1.26487C1.94701 25.1729 2.5 24.6199 2.5 23.9378Z" fill="#CDD1CD"/>
</svg>
