<svg width="24" height="29" viewBox="0 0 24 29" fill="none" xmlns="http://www.w3.org/2000/svg">
<path d="M12 0C8.8174 0 5.76516 1.22214 3.51472 3.39755C1.26428 5.57297 0 8.52346 0 11.6C0 19.4299 10.575 28.2749 11.025 28.6519C11.2967 28.8766 11.6425 29 12 29C12.3575 29 12.7033 28.8766 12.975 28.6519C13.5 28.2749 24 19.4299 24 11.6C24 8.52346 22.7357 5.57297 20.4853 3.39755C18.2348 1.22214 15.1826 0 12 0ZM12 25.5924C8.805 22.6924 3 16.4429 3 11.6C3 9.29259 3.94821 7.07971 5.63604 5.44815C7.32387 3.81659 9.61305 2.89999 12 2.89999C14.3869 2.89999 16.6761 3.81659 18.364 5.44815C20.0518 7.07971 21 9.29259 21 11.6C21 16.4429 15.195 22.7069 12 25.5924ZM12 5.79998C10.8133 5.79998 9.65327 6.14014 8.66658 6.77745C7.67988 7.41476 6.91085 8.3206 6.45672 9.38041C6.0026 10.4402 5.88378 11.6064 6.11529 12.7315C6.3468 13.8566 6.91824 14.89 7.75736 15.7012C8.59647 16.5123 9.66557 17.0647 10.8295 17.2885C11.9933 17.5123 13.1997 17.3974 14.2961 16.9584C15.3925 16.5195 16.3295 15.7761 16.9888 14.8223C17.6481 13.8685 18 12.7471 18 11.6C18 10.0617 17.3679 8.58646 16.2426 7.49876C15.1174 6.41105 13.5913 5.79998 12 5.79998ZM12 14.5C11.4067 14.5 10.8266 14.3299 10.3333 14.0112C9.83994 13.6926 9.45542 13.2396 9.22836 12.7097C9.0013 12.1798 8.94189 11.5967 9.05764 11.0342C9.1734 10.4717 9.45912 9.95493 9.87868 9.54936C10.2982 9.14379 10.8328 8.86759 11.4147 8.75569C11.9967 8.6438 12.5999 8.70123 13.1481 8.92072C13.6962 9.14021 14.1648 9.51191 14.4944 9.98881C14.8241 10.4657 15 11.0264 15 11.6C15 12.3691 14.6839 13.1067 14.1213 13.6506C13.5587 14.1944 12.7956 14.5 12 14.5Z" fill="#F23535"/>
</svg>
