<svg width="18" height="18" viewBox="0 0 18 18" fill="none" xmlns="http://www.w3.org/2000/svg">
<path d="M2.01198 13.9642L2.96066 14.2804H2.96066L2.01198 13.9642ZM2.76117 11.7166L1.81248 11.4004H1.81248L2.76117 11.7166ZM3.53421 10.4658L4.24132 11.1729L4.24132 11.1729L3.53421 10.4658ZM11.0001 2.99994L10.2929 2.29283V2.29283L11.0001 2.99994ZM15 6.99994L15.7072 7.70705H15.7072L15 6.99994ZM7.53421 14.4658L6.8271 13.7587L6.8271 13.7587L7.53421 14.4658ZM6.2834 15.2388L6.59963 16.1875H6.59963L6.2834 15.2388ZM4.03584 15.988L4.35206 16.9367L4.35206 16.9367L4.03584 15.988ZM7.12417 14.8485L6.52193 14.0502L6.52192 14.0502L7.12417 14.8485ZM6.8091 15.0432L6.36439 14.1476L6.8091 15.0432ZM15.9637 4.11191L15.0676 4.55593V4.55593L15.9637 4.11191ZM15.9637 5.88797L15.0676 5.44396V5.44396L15.9637 5.88797ZM12.112 2.03633L12.556 2.93235V2.93235L12.112 2.03633ZM13.8881 2.03633L13.4441 2.93235V2.93235L13.8881 2.03633ZM2.95676 11.1909L3.85244 11.6356L3.85244 11.6356L2.95676 11.1909ZM3.15148 10.8758L2.35317 10.2736L2.35317 10.2736L3.15148 10.8758ZM1.63928 15.7547L0.697379 16.0906L1.63928 15.7547ZM2.24531 16.3607L1.90943 17.3026L1.90943 17.3026L2.24531 16.3607ZM10.7072 3.29287C10.3166 2.90234 9.68346 2.90234 9.29294 3.29287C8.90241 3.68339 8.90241 4.31656 9.29294 4.70708L10.7072 3.29287ZM13.2929 8.70708C13.6835 9.09761 14.3166 9.09761 14.7072 8.70708C15.0977 8.31656 15.0977 7.68339 14.7072 7.29287L13.2929 8.70708ZM2.96066 14.2804L3.70985 12.0328L1.81248 11.4004L1.0633 13.6479L2.96066 14.2804ZM4.24132 11.1729L11.7072 3.70705L10.2929 2.29283L2.8271 9.75867L4.24132 11.1729ZM14.2929 6.29284L6.8271 13.7587L8.24132 15.1729L15.7072 7.70705L14.2929 6.29284ZM5.96717 14.2901L3.71961 15.0393L4.35206 16.9367L6.59963 16.1875L5.96717 14.2901ZM6.8271 13.7587C6.60902 13.9768 6.56482 14.0178 6.52193 14.0502L7.72641 15.6468C7.90595 15.5114 8.06097 15.3532 8.24132 15.1729L6.8271 13.7587ZM6.59963 16.1875C6.84158 16.1069 7.05235 16.0389 7.2538 15.9389L6.36439 14.1476C6.31627 14.1714 6.25977 14.1926 5.96717 14.2901L6.59963 16.1875ZM6.52192 14.0502C6.47254 14.0875 6.4198 14.12 6.36439 14.1476L7.2538 15.9389C7.42003 15.8564 7.57825 15.7586 7.72641 15.6468L6.52192 14.0502ZM14.2929 3.70705C14.8953 4.30939 15.0131 4.44595 15.0676 4.55593L16.8597 3.6679C16.6227 3.18969 16.1953 2.78099 15.7072 2.29284L14.2929 3.70705ZM15.7072 7.70705C16.1953 7.21889 16.6227 6.8102 16.8597 6.33199L15.0676 5.44396C15.0131 5.55394 14.8953 5.69049 14.2929 6.29284L15.7072 7.70705ZM15.0676 4.55593C15.2063 4.8357 15.2063 5.16418 15.0676 5.44396L16.8597 6.33199C17.2756 5.49266 17.2756 4.50723 16.8597 3.66789L15.0676 4.55593ZM11.7072 3.70705C12.3095 3.10471 12.4461 2.98685 12.556 2.93235L11.668 1.14031C11.1898 1.37728 10.7811 1.80468 10.2929 2.29283L11.7072 3.70705ZM15.7072 2.29284C15.219 1.80468 14.8103 1.37728 14.3321 1.14031L13.4441 2.93235C13.554 2.98685 13.6906 3.10471 14.2929 3.70705L15.7072 2.29284ZM12.556 2.93235C12.8358 2.79371 13.1643 2.79371 13.4441 2.93235L14.3321 1.14031C13.4928 0.724388 12.5073 0.724388 11.668 1.14031L12.556 2.93235ZM3.70985 12.0328C3.80738 11.7402 3.82854 11.6837 3.85244 11.6356L2.06108 10.7462C1.96106 10.9476 1.89313 11.1584 1.81248 11.4004L3.70985 12.0328ZM2.82711 9.75867C2.64676 9.93901 2.48862 10.094 2.35317 10.2736L3.9498 11.4781C3.98215 11.4352 4.02323 11.391 4.24132 11.1729L2.82711 9.75867ZM3.85244 11.6356C3.87995 11.5802 3.91254 11.5275 3.9498 11.4781L2.35317 10.2736C2.2414 10.4217 2.14362 10.58 2.06108 10.7462L3.85244 11.6356ZM1.0633 13.6479C0.90675 14.1176 0.766437 14.5353 0.686565 14.8752C0.61018 15.2003 0.538011 15.6436 0.697379 16.0906L2.58119 15.4188C2.6247 15.5408 2.57603 15.5775 2.63353 15.3328C2.68755 15.1029 2.79151 14.7878 2.96066 14.2804L1.0633 13.6479ZM3.71961 15.0393C3.21215 15.2085 2.89711 15.3124 2.66724 15.3665C2.42254 15.424 2.45916 15.3753 2.58119 15.4188L1.90943 17.3026C2.35634 17.462 2.79968 17.3898 3.12475 17.3134C3.46465 17.2336 3.88243 17.0932 4.35206 16.9367L3.71961 15.0393ZM0.697379 16.0906C0.899015 16.656 1.34398 17.101 1.90943 17.3026L2.58119 15.4188L2.58119 15.4188L0.697379 16.0906ZM9.29294 4.70708L13.2929 8.70708L14.7072 7.29287L10.7072 3.29287L9.29294 4.70708Z" fill="#111111"/>
</svg>
