<svg width="25" height="25" viewBox="0 0 25 25" fill="none" xmlns="http://www.w3.org/2000/svg">
<g clip-path="url(#clip0_191_190)">
<path d="M5.95703 0.0732422C2.89062 0.498047 0.483398 2.9248 0.0683594 6.00586C-0.0292969 6.7627 -0.0292969 18.2373 0.0683594 18.9941C0.273438 20.5176 0.947266 21.8848 2.03125 22.9688C3.11035 24.0479 4.48242 24.7266 6.00586 24.9316C6.7627 25.0293 18.2373 25.0293 18.9941 24.9316C22.0996 24.5117 24.5117 22.0996 24.9316 18.9941C25.0293 18.2373 25.0293 6.7627 24.9316 6.00586C24.5117 2.90039 22.0996 0.488281 18.9941 0.0683594C18.2715 -0.0244141 6.66016 -0.0244141 5.95703 0.0732422ZM18.4668 2.24609C19.6582 2.3584 20.6396 2.82227 21.4404 3.64746C22.2217 4.45312 22.6416 5.37598 22.7539 6.5332C22.8174 7.23633 22.8174 17.7637 22.7539 18.4668C22.6416 19.624 22.2217 20.5469 21.4404 21.3525C20.6396 22.1777 19.6582 22.6416 18.4668 22.7539C17.7637 22.8174 7.23633 22.8174 6.5332 22.7539C5.3418 22.6416 4.36035 22.1777 3.55957 21.3525C2.77832 20.5469 2.3584 19.624 2.24609 18.4668C2.18262 17.7637 2.18262 7.23633 2.24609 6.5332C2.3584 5.3418 2.82227 4.36035 3.64746 3.55957C4.42383 2.80273 5.38574 2.35352 6.44531 2.25098C7.06543 2.19238 17.8369 2.1875 18.4668 2.24609Z" fill="#606060"/>
<path d="M18.6181 4.30185C18.2519 4.44345 17.915 4.76572 17.749 5.13681C17.2753 6.17197 17.9931 7.34872 19.1357 7.4122C19.6875 7.4415 20.249 7.16318 20.5517 6.70419C20.7519 6.40634 20.8203 6.15243 20.8154 5.74716C20.8056 4.66318 19.6533 3.90146 18.6181 4.30185Z" fill="#606060"/>
<path d="M11.6212 6.12787C10.2051 6.32807 8.97467 6.9433 7.95904 7.95893C6.86529 9.04779 6.25982 10.3417 6.09869 11.9287C5.93756 13.4472 6.42096 15.1415 7.36822 16.3818C7.65142 16.7578 8.24224 17.3486 8.61822 17.6318C9.85846 18.579 11.5528 19.0624 13.0762 18.9013C14.6583 18.7402 15.9522 18.1347 17.0411 17.041C18.1348 15.9521 18.7403 14.6581 18.9014 13.0761C19.0333 11.8212 18.7305 10.4247 18.0811 9.3017C16.7725 7.02631 14.209 5.76654 11.6212 6.12787ZM13.4766 8.39838C14.9952 8.76459 16.2354 10.0048 16.6016 11.5234C16.7335 12.0898 16.7335 12.9101 16.6016 13.4765C16.3135 14.6874 15.4639 15.7372 14.3409 16.2841C13.7256 16.582 13.2032 16.6992 12.5001 16.6992C11.7969 16.6992 11.2745 16.582 10.6592 16.2841C9.53619 15.7372 8.68658 14.6874 8.39849 13.4765C8.26666 12.9101 8.26666 12.0898 8.39849 11.5234C8.75982 10.0195 9.99517 8.76947 11.4991 8.40326C12.046 8.26654 12.92 8.26654 13.4766 8.39838Z" fill="#606060"/>
</g>
<defs>
<clipPath id="clip0_191_190">
<rect width="25" height="25" fill="white"/>
</clipPath>
</defs>
</svg>
