<svg width="32" height="42" viewBox="0 0 32 42" fill="none" xmlns="http://www.w3.org/2000/svg">
<path d="M7 19C7 13.3431 7 10.5147 8.39124 8.75736C9.78249 7 12.0217 7 16.5 7C20.9783 7 23.2175 7 24.6088 8.75736C26 10.5147 26 13.3431 26 19V25C26 30.6569 26 33.4853 24.6088 35.2426C23.2175 37 20.9783 37 16.5 37C12.0217 37 9.78249 37 8.39124 35.2426C7 33.4853 7 30.6569 7 25V19Z" stroke="#606060" stroke-width="3"/>
<path d="M17 33.5C17.8284 33.5 18.5 32.8284 18.5 32C18.5 31.1716 17.8284 30.5 17 30.5V33.5ZM16 30.5C15.1716 30.5 14.5 31.1716 14.5 32C14.5 32.8284 15.1716 33.5 16 33.5V30.5ZM17 30.5H16V33.5H17V30.5Z" fill="#606060"/>
</svg>
