<svg width="21" height="27" viewBox="0 0 21 27" fill="none" xmlns="http://www.w3.org/2000/svg">
<path fill-rule="evenodd" clip-rule="evenodd" d="M10.4993 3.16671C6.21503 3.16671 2.77861 6.80826 2.77861 11.2524C2.77861 13.9039 3.66677 15.1586 5.90338 18.186L5.90696 18.1908C6.85445 19.4733 8.01152 21.0394 9.35315 23.1048C9.89533 23.9395 11.1033 23.9395 11.6455 23.1048C12.9871 21.0394 14.1442 19.4732 15.0917 18.1908L15.0952 18.186C17.3319 15.1586 18.22 13.9039 18.22 11.2524C18.22 6.80826 14.7836 3.16671 10.4993 3.16671ZM0.361938 11.2524C0.361938 5.33861 4.92085 0.583374 10.4993 0.583374C16.0778 0.583374 20.6367 5.33861 20.6367 11.2524C20.6367 14.8548 19.2297 16.7587 17.0841 19.6622C17.0535 19.7036 17.0227 19.7452 16.9918 19.7871C16.0462 21.0669 14.928 22.5807 13.6305 24.5782C12.1271 26.8929 8.87156 26.8929 7.36808 24.5782C6.0706 22.5807 4.95241 21.0669 4.00685 19.7871C3.97594 19.7452 3.94517 19.7036 3.91456 19.6622C1.76889 16.7587 0.361938 14.8548 0.361938 11.2524ZM10.4994 10.5904C10.0708 10.5904 9.72346 10.9618 9.72346 11.4198C9.72346 11.8779 10.0708 12.2493 10.4994 12.2493C10.9279 12.2493 11.2753 11.8779 11.2753 11.4198C11.2753 10.9618 10.9279 10.5904 10.4994 10.5904ZM7.30679 11.4198C7.30679 9.53504 8.73615 8.00711 10.4994 8.00711C12.2626 8.00711 13.6919 9.53504 13.6919 11.4198C13.6919 13.3047 12.2626 14.8326 10.4994 14.8326C8.73615 14.8326 7.30679 13.3047 7.30679 11.4198Z" fill="#999999"/>
</svg>
