<svg width="24" height="27" viewBox="0 0 24 27" fill="none" xmlns="http://www.w3.org/2000/svg">
<path fill-rule="evenodd" clip-rule="evenodd" d="M11.5356 2.98435C6.66042 2.98435 2.75 6.69011 2.75 11.2126C2.75 13.9108 3.76067 15.1877 6.30578 18.2684L6.30985 18.2734C7.38803 19.5784 8.7047 21.1722 10.2314 23.274C10.8483 24.1234 12.2229 24.1234 12.8399 23.274C14.3666 21.1721 15.6833 19.5784 16.7614 18.2733L16.7655 18.2684C19.3106 15.1877 20.3213 13.9108 20.3213 11.2126C20.3213 6.69011 16.4108 2.98435 11.5356 2.98435ZM0 11.2126C0 5.19455 5.18772 0.355469 11.5356 0.355469C17.8835 0.355469 23.0713 5.19455 23.0713 11.2126C23.0713 14.8785 21.4703 16.816 19.0286 19.7707C18.9938 19.8128 18.9588 19.8552 18.9236 19.8978C17.8476 21.2002 16.5752 22.7407 15.0988 24.7734C13.3879 27.1288 9.68336 27.1288 7.97251 24.7734C6.49606 22.7407 5.22364 21.2002 4.14765 19.8978C4.11248 19.8552 4.07747 19.8128 4.04264 19.7707C1.60101 16.816 0 14.8785 0 11.2126ZM11.5357 10.539C11.0481 10.539 10.6528 10.9169 10.6528 11.383C10.6528 11.8492 11.0481 12.227 11.5357 12.227C12.0233 12.227 12.4186 11.8492 12.4186 11.383C12.4186 10.9169 12.0233 10.539 11.5357 10.539ZM7.90276 11.383C7.90276 9.46497 9.52928 7.91009 11.5357 7.91009C13.5421 7.91009 15.1686 9.46497 15.1686 11.383C15.1686 13.301 13.5421 14.8559 11.5357 14.8559C9.52928 14.8559 7.90276 13.301 7.90276 11.383Z" fill="#606060"/>
</svg>
