<svg width="30" height="36" viewBox="0 0 30 36" fill="none" xmlns="http://www.w3.org/2000/svg">
<path d="M1.66675 14.6668C1.66675 8.38144 1.66675 5.23874 3.61937 3.28612C5.57199 1.3335 8.71469 1.3335 15.0001 1.3335C21.2855 1.3335 24.4282 1.3335 26.3808 3.28612C28.3334 5.23874 28.3334 8.38144 28.3334 14.6668V19.6668C28.3334 25.9522 28.3334 29.0949 26.3808 31.0475C24.4282 33.0002 21.2855 33.0002 15.0001 33.0002C8.71469 33.0002 5.57199 33.0002 3.61937 31.0475C1.66675 29.0949 1.66675 25.9522 1.66675 19.6668V14.6668Z" stroke="black" stroke-width="2.5"/>
<path d="M23.3334 33V34.6667H21.6667V33M8.33341 33V34.6667H6.66675V33" stroke="black" stroke-width="2.5" stroke-linejoin="round"/>
<path d="M28.3334 17.1665H1.66675" stroke="black" stroke-width="2.5"/>
<path d="M23.3333 9.66667L23.3333 13" stroke="black" stroke-width="2.5" stroke-linecap="round"/>
<path d="M23.3333 21.3332L23.3333 24.6665" stroke="black" stroke-width="2.5" stroke-linecap="round"/>
</svg>
