<svg width="24" height="24" viewBox="0 0 24 24" fill="none" xmlns="http://www.w3.org/2000/svg">
<path d="M6 22H18.5C19.9045 22 20.6067 22 21.1111 21.6629C21.3295 21.517 21.517 21.3295 21.6629 21.1111C22 20.6067 22 19.9045 22 18.5C22 17.0955 22 16.3933 21.6629 15.8889C21.517 15.6705 21.3295 15.483 21.1111 15.3371C20.6067 15 19.9045 15 18.5 15H11C10.0572 15 9.58579 15 9.29289 14.7071C9 14.4142 9 13.9428 9 13V5.5C9 4.09554 9 3.39331 8.66294 2.88886C8.51702 2.67048 8.32952 2.48298 8.11114 2.33706C7.60669 2 6.90446 2 5.5 2C4.09554 2 3.39331 2 2.88886 2.33706C2.67048 2.48298 2.48298 2.67048 2.33706 2.88886C2 3.39331 2 4.09554 2 5.5L2 18C2 19.8856 2 20.8284 2.58579 21.4142C3.17157 22 4.11438 22 6 22Z" stroke="#999999" stroke-width="2.5" stroke-linecap="round"/>
<path d="M2 12L4 12M2 6L4 6M2 15L5 15M2 9L5 9" stroke="#999999" stroke-width="2" stroke-linecap="round"/>
<path d="M12 22V20M18 22V20M15 22L15 19M9 22L9 19" stroke="#999999" stroke-width="2" stroke-linecap="round"/>
</svg>
