<svg width="18" height="23" viewBox="0 0 18 23" fill="none" xmlns="http://www.w3.org/2000/svg">
<path d="M4.42857 8V5.66667C4.42857 3.08934 6.47527 1 9 1C11.5247 1 13.5714 3.08934 13.5714 5.66667V8M11.2859 17.3336L6.71433 12.6666M6.71443 17.3336L11.2859 12.6666M4.65714 22H13.3429C14.623 22 15.263 22 15.752 21.7457C16.1821 21.522 16.5317 21.165 16.7509 20.726C17 20.2269 17 19.5735 17 18.2667V11.7333C17 10.4265 17 9.77315 16.7509 9.27402C16.5317 8.83498 16.1821 8.47802 15.752 8.25432C15.263 8 14.623 8 13.3429 8H4.65714C3.37702 8 2.73696 8 2.24802 8.25432C1.81794 8.47802 1.46827 8.83498 1.24913 9.27402C1 9.77315 1 10.4265 1 11.7333V18.2667C1 19.5735 1 20.2269 1.24913 20.726C1.46827 21.165 1.81794 21.522 2.24802 21.7457C2.73696 22 3.37702 22 4.65714 22Z" stroke="#899DA5" stroke-width="2" stroke-linecap="round"/>
</svg>
