<svg width="136" height="135" viewBox="0 0 136 135" fill="none" xmlns="http://www.w3.org/2000/svg">
<path fill-rule="evenodd" clip-rule="evenodd" d="M20.424 116.276C20.4244 116.276 20.4248 116.276 20.4252 116.276L19.1409 114.994C19.1407 114.994 19.1405 114.994 19.1404 114.994L19.14 114.994C19.1399 114.994 19.1397 114.994 19.1396 114.994C0.192202 124.508 8.25387 103.243 13.9095 98.7104L13.0014 102.79L18.0027 94.6278C18.0027 94.6278 14.3696 95.9876 10.2831 100.973C5.45482 107.107 -0.441868 123.485 18.3856 117.028C11.9004 135.768 28.0394 129.097 34.1844 124.278C39.1796 120.199 40.5417 116.572 40.5417 116.572L32.3644 121.564L36.4515 120.658C31.9108 126.303 10.8926 135.19 20.424 116.276Z" fill="#F5F7F9"/>
<path d="M38.0664 96.7366L38.9746 97.6431L19.9026 117.133L18.5403 115.32L38.0664 96.7366Z" fill="#F5F7F9"/>
<path fill-rule="evenodd" clip-rule="evenodd" d="M64.9712 37.4251C41.511 61.7526 30.6665 104.71 30.5642 105.117L30.5625 105.119L30.5638 105.118L30.5651 105.118C30.9625 105.015 76.8264 93.0636 101.291 67.6944C124.751 43.3671 135.596 0.4104 135.698 0.00292004L135.7 0.000896016L135.699 0.00122481L135.699 0L135.697 0.00157278C135.299 0.104957 89.4357 12.0561 64.9712 37.4251ZM114.097 26.277C116.834 26.277 119.053 24.0622 119.053 21.3302C119.053 18.5982 116.834 16.3835 114.097 16.3835C111.36 16.3835 109.141 18.5982 109.141 21.3302C109.141 24.0622 111.36 26.277 114.097 26.277Z" fill="#F5F7F9"/>
</svg>
