<svg width="255" height="80" viewBox="0 0 255 80" fill="none" xmlns="http://www.w3.org/2000/svg">
<path fill-rule="evenodd" clip-rule="evenodd" d="M10.761 68.0187C10.7611 68.0187 10.7613 68.0186 10.7614 68.0186L10.0719 67.3632C10.0719 67.3632 10.0719 67.3632 10.0719 67.3632L10.0717 67.363C10.0716 67.3631 10.0716 67.3632 10.0716 67.3633C-0.10026 72.2278 4.22749 61.3554 7.26362 59.0381L6.77608 61.1237L9.46094 56.9508C9.46094 56.9508 7.51059 57.646 5.31684 60.1951C2.7249 63.331 -0.440617 71.7044 9.66675 68.4029C6.18534 77.9841 14.8491 74.5734 18.1479 72.1096C20.8295 70.0242 21.5607 68.1701 21.5607 68.1701L17.1709 70.7222L19.365 70.2589C16.9274 73.1452 5.6443 77.6888 10.761 68.0187Z" fill="white"/>
<path d="M20.233 58.0289L20.7206 58.4924L10.4823 68.4568L9.75095 67.5299L20.233 58.0289Z" fill="white"/>
<path fill-rule="evenodd" clip-rule="evenodd" d="M16.2051 62.3143L16.2064 62.3131L16.2053 62.3144C16.2053 62.3144 40.9836 56.2077 54.1741 43.1809C66.828 30.6839 72.6449 8.57137 72.6449 8.57137L72.6436 8.57259L72.6447 8.57129C72.6447 8.57129 47.8664 14.678 34.6759 27.7048C22.022 40.2018 16.2051 62.3143 16.2051 62.3143ZM61.0481 22.0059C62.5175 22.0059 63.7086 20.8736 63.7086 19.4768C63.7086 18.0801 62.5175 16.9478 61.0481 16.9478C59.5788 16.9478 58.3877 18.0801 58.3877 19.4768C58.3877 20.8736 59.5788 22.0059 61.0481 22.0059Z" fill="white"/>
<path d="M79.8 39V11H87V21.64H97.4V11H104.6V39H97.4V27.56H87V39H79.8ZM107.751 39L117.991 11H125.191L135.391 39H127.791L125.871 33.64H116.511L114.591 39H107.751ZM118.551 28.12H123.831L121.191 19.8L118.551 28.12Z" fill="white"/>
<path d="M79.8 73.2856V45.2856H87V56.3656H89L97.56 45.2856H105.4L94.6 58.3656L105.8 73.2856H97.4L89 61.4056H87V73.2856H79.8ZM109.214 73.2856V45.2856H120.614C123.227 45.2856 125.374 45.6723 127.054 46.4456C128.734 47.1923 129.974 48.2856 130.774 49.7256C131.601 51.139 132.014 52.8456 132.014 54.8456C132.014 56.819 131.601 58.5256 130.774 59.9656C129.974 61.4056 128.734 62.5123 127.054 63.2856C125.374 64.0323 123.227 64.4056 120.614 64.4056H116.414V73.2856H109.214ZM116.414 58.4856H119.814C121.654 58.4856 122.947 58.179 123.694 57.5656C124.441 56.9523 124.814 56.0456 124.814 54.8456C124.814 53.6456 124.441 52.739 123.694 52.1256C122.947 51.5123 121.654 51.2056 119.814 51.2056H116.414V58.4856ZM136.011 73.2856V45.2856H143.211V55.9256H146.011C146.331 53.3123 147.051 51.1923 148.171 49.5656C149.318 47.9123 150.744 46.699 152.451 45.9256C154.184 45.1523 156.104 44.7656 158.211 44.7656C160.558 44.7656 162.678 45.2456 164.571 46.2056C166.464 47.1656 167.971 48.6723 169.091 50.7256C170.238 52.7523 170.811 55.4056 170.811 58.6856V59.4856C170.811 62.8723 170.238 65.619 169.091 67.7256C167.971 69.8323 166.464 71.379 164.571 72.3656C162.678 73.3256 160.558 73.8056 158.211 73.8056C156.078 73.8056 154.131 73.4056 152.371 72.6056C150.611 71.779 149.158 70.499 148.011 68.7656C146.891 67.0056 146.198 64.699 145.931 61.8456H143.211V73.2856H136.011ZM158.211 67.8056C159.144 67.8056 159.998 67.5656 160.771 67.0856C161.544 66.579 162.171 65.739 162.651 64.5656C163.131 63.3656 163.371 61.6723 163.371 59.4856V58.6856C163.371 56.6056 163.131 54.9923 162.651 53.8456C162.171 52.699 161.544 51.899 160.771 51.4456C159.998 50.9923 159.144 50.7656 158.211 50.7656C157.304 50.7656 156.451 50.9923 155.651 51.4456C154.878 51.899 154.251 52.699 153.771 53.8456C153.291 54.9923 153.051 56.6056 153.051 58.6856V59.4856C153.051 61.6723 153.291 63.3656 153.771 64.5656C154.251 65.739 154.878 66.579 155.651 67.0856C156.451 67.5656 157.304 67.8056 158.211 67.8056ZM189.985 73.2856V62.1256C189.292 62.579 188.372 62.9923 187.225 63.3656C186.105 63.7123 184.772 63.8856 183.225 63.8856C180.318 63.8856 178.118 63.1656 176.625 61.7256C175.158 60.259 174.425 57.9123 174.425 54.6856V45.2856H181.625V53.4856C181.625 55.059 181.958 56.1923 182.625 56.8856C183.292 57.5523 184.225 57.8856 185.425 57.8856C186.518 57.8856 187.438 57.7656 188.185 57.5256C188.932 57.259 189.532 56.979 189.985 56.6856V45.2856H197.225V73.2856H189.985ZM202.808 73.2856V45.2856H210.008V56.3656H212.008L220.568 45.2856H228.408L217.608 58.3656L228.808 73.2856H220.408L212.008 61.4056H210.008V73.2856H202.808ZM232.222 73.2856V45.2856H252.622V50.8056H239.422V56.2856H251.422V61.4856H239.422V67.7656H252.622V73.2856H232.222Z" fill="white"/>
</svg>
