<svg width="40" height="40" viewBox="0 0 40 40" fill="none" xmlns="http://www.w3.org/2000/svg">
<path d="M19.2555 29.8297L18.5622 28.7896V28.7896L19.2555 29.8297ZM12.2881 30.7627L12.6834 29.5769H12.6834L12.2881 30.7627ZM27.308 27.7694L27.7033 26.5835L27.308 27.7694ZM24.4545 27.0824L24.4972 28.3317L24.4545 27.0824ZM21.0987 28.6009L21.7921 29.6409L21.0987 28.6009ZM23.6709 27.1873L23.9584 28.4038L23.6709 27.1873ZM20.7445 10.1704L21.4378 11.2104L21.4378 11.2104L20.7445 10.1704ZM27.7119 9.23732L27.3166 10.4232L27.7119 9.23732ZM12.692 12.2307L12.2967 13.4165L12.692 12.2307ZM15.5455 12.9176L15.5028 11.6684L15.5455 12.9176ZM18.9013 11.3992L18.2079 10.3591V10.3591L18.9013 11.3992ZM16.3291 12.8127L16.0416 11.5962L16.3291 12.8127ZM10.7351 30.2451L10.3398 31.4309H10.3398L10.7351 30.2451ZM31.4765 27.9076L30.5537 27.0644L31.4765 27.9076ZM30.8129 28.3858L31.321 29.5279L30.8129 28.3858ZM29.2649 9.75499L29.6602 8.56914L29.2649 9.75499ZM8.52352 12.0925L9.44632 12.9356L8.52352 12.0925ZM9.18706 11.6142L8.67897 10.4721L9.18706 11.6142ZM30.75 13.5497V24.3875H33.25V13.5497H30.75ZM9.25 26.4503V15.6125H6.75V26.4503H9.25ZM19.5947 12.4392L21.4378 11.2104L20.0511 9.13032L18.2079 10.3591L19.5947 12.4392ZM27.3166 10.4232L28.8696 10.9408L29.6602 8.56914L28.1072 8.05146L27.3166 10.4232ZM20.4053 27.5608L18.5622 28.7896L19.9489 30.8697L21.7921 29.6409L20.4053 27.5608ZM12.6834 29.5769L11.1304 29.0592L10.3398 31.4309L11.8928 31.9486L12.6834 29.5769ZM18.5622 28.7896C16.8616 29.9233 16.3375 30.2368 15.774 30.3123L16.1058 32.7902C17.3774 32.6199 18.4521 31.8676 19.9489 30.8697L18.5622 28.7896ZM11.8928 31.9486C13.5995 32.5175 14.8342 32.9605 16.1058 32.7902L15.774 30.3123C15.2104 30.3878 14.6224 30.2232 12.6834 29.5769L11.8928 31.9486ZM27.7033 26.5835C26.3691 26.1388 25.4082 25.7991 24.4119 25.8331L24.4972 28.3317C24.9387 28.3166 25.4008 28.4513 26.9127 28.9552L27.7033 26.5835ZM21.7921 29.6409C23.1181 28.757 23.5285 28.5055 23.9584 28.4038L23.3833 25.9709C22.4131 26.2002 21.5754 26.7807 20.4053 27.5608L21.7921 29.6409ZM24.4119 25.8331C24.0653 25.845 23.7208 25.8911 23.3833 25.9709L23.9584 28.4038C24.1352 28.362 24.3157 28.3379 24.4972 28.3317L24.4119 25.8331ZM21.4378 11.2104C23.1384 10.0767 23.6625 9.76321 24.226 9.68773L23.8942 7.20986C22.6226 7.38015 21.5479 8.13243 20.0511 9.13032L21.4378 11.2104ZM28.1072 8.05146C26.4005 7.48258 25.1658 7.03957 23.8942 7.20986L24.226 9.68773C24.7896 9.61226 25.3776 9.77685 27.3166 10.4232L28.1072 8.05146ZM12.2967 13.4165C13.6309 13.8613 14.5918 14.2009 15.5881 14.1669L15.5028 11.6684C15.0613 11.6835 14.5992 11.5488 13.0873 11.0448L12.2967 13.4165ZM18.2079 10.3591C16.8819 11.2431 16.4715 11.4946 16.0416 11.5962L16.6167 14.0292C17.5869 13.7998 18.4246 13.2193 19.5947 12.4392L18.2079 10.3591ZM15.5881 14.1669C15.9347 14.1551 16.2792 14.1089 16.6167 14.0292L16.0416 11.5962C15.8648 11.638 15.6843 11.6622 15.5028 11.6684L15.5881 14.1669ZM6.75 26.4503C6.75 27.1173 6.74811 27.7224 6.80526 28.223C6.86605 28.7554 7.00414 29.2936 7.36346 29.7921L9.39157 28.3304C9.37337 28.3051 9.32271 28.2336 9.28912 27.9394C9.25189 27.6132 9.25 27.1748 9.25 26.4503H6.75ZM11.1304 29.0592C10.443 28.8301 10.0277 28.6897 9.7301 28.5512C9.46163 28.4263 9.40976 28.3556 9.39157 28.3304L7.36346 29.7921C7.72278 30.2907 8.18968 30.5919 8.67561 30.8179C9.13239 31.0304 9.7071 31.22 10.3398 31.4309L11.1304 29.0592ZM30.75 24.3875C30.75 25.401 30.748 26.0515 30.6929 26.5251C30.6394 26.9851 30.5551 27.0628 30.5537 27.0644L32.3993 28.7508C32.9214 28.1794 33.0988 27.4794 33.1762 26.8138C33.252 26.1618 33.25 25.3388 33.25 24.3875H30.75ZM26.9127 28.9552C27.8152 29.256 28.5953 29.5182 29.2378 29.6525C29.8938 29.7895 30.6139 29.8425 31.321 29.5279L30.3049 27.2438C30.3029 27.2446 30.2025 27.3 29.7492 27.2053C29.2825 27.1078 28.6647 26.904 27.7033 26.5835L26.9127 28.9552ZM30.5537 27.0644C30.484 27.1407 30.3993 27.2018 30.3049 27.2438L31.321 29.5279C31.7302 29.3459 32.0972 29.0813 32.3993 28.7508L30.5537 27.0644ZM33.25 13.5497C33.25 12.8828 33.2519 12.2776 33.1947 11.7771C33.134 11.2446 32.9959 10.7064 32.6365 10.2079L30.6084 11.6697C30.6266 11.6949 30.6773 11.7665 30.7109 12.0607C30.7481 12.3868 30.75 12.8252 30.75 13.5497H33.25ZM28.8696 10.9408C29.557 11.17 29.9723 11.3104 30.2699 11.4488C30.5384 11.5737 30.5902 11.6444 30.6084 11.6697L32.6365 10.2079C32.2772 9.70937 31.8103 9.40817 31.3244 9.18212C30.8676 8.96962 30.2929 8.78004 29.6602 8.56914L28.8696 10.9408ZM9.25 15.6125C9.25 14.5991 9.25201 13.9486 9.30707 13.4749C9.36056 13.015 9.44489 12.9372 9.44632 12.9356L7.60072 11.2493C7.07863 11.8207 6.9012 12.5206 6.82381 13.1862C6.74799 13.8382 6.75 14.6612 6.75 15.6125H9.25ZM13.0873 11.0448C12.1848 10.744 11.4047 10.4819 10.7622 10.3476C10.1062 10.2105 9.38614 10.1575 8.67897 10.4721L9.69515 12.7563C9.69709 12.7554 9.79751 12.7 10.2508 12.7947C10.7175 12.8923 11.3353 13.0961 12.2967 13.4165L13.0873 11.0448ZM9.44632 12.9356C9.51602 12.8594 9.60074 12.7983 9.69515 12.7563L8.67897 10.4721C8.26985 10.6541 7.90276 10.9187 7.60072 11.2493L9.44632 12.9356Z" fill="white"/>
<path d="M16 12.8515V31.3333" stroke="white" stroke-width="2.5"/>
<path d="M24 8V26.6667" stroke="white" stroke-width="2.5"/>
</svg>
