<svg width="57" height="64" viewBox="0 0 57 64" fill="none" xmlns="http://www.w3.org/2000/svg">
<path d="M9.19457 48.2676C11.3486 48.1123 13.5113 48.1122 14.7104 47.87C15.9095 47.6278 14.7104 30.9147 14.7104 30.9147M9.19457 48.2676C9.19457 46.9011 8.71493 39.8768 6.79638 39.8768C4.87783 39.8768 4.39819 49.4559 4.39819 49.4559M9.19457 48.2676C6.07692 48.8389 4.39819 49.4559 4.39819 49.4559M4.39819 49.4559C4.39819 49.4559 2 50.2922 2 50.7766C2 51.2611 4.39819 52.0974 4.39819 52.0974M4.39819 52.0974C4.39819 52.0974 5.11765 61.9187 6.79638 61.9187C8.47511 61.9187 8.71493 56.5899 9.19457 53.2856M4.39819 52.0974C4.39819 52.0974 6.31674 52.8255 9.19457 53.2856M9.19457 53.2856C11.3486 53.6301 13.991 53.441 14.7104 54.1677C15.4299 54.8944 14.2308 62.8875 16.3891 61.9187C18.5475 60.9499 24.7828 56.3476 25.2624 55.3788C25.7421 54.41 27.9005 39.8768 29.0995 30.9147M29.0995 30.9147C23.4802 30.9147 14.7104 30.9147 14.7104 30.9147M29.0995 30.9147C35.3348 31.3993 34.6154 28.9771 35.3348 27.0392M14.7104 30.9147C14.7104 30.9147 10.5 31.5 9.91403 27.0392C9.91403 27.0392 5.11765 23.406 5.11765 18.5616C5.11765 13.7171 5.11765 12.0216 5.11765 8.38842C5.11765 4.75523 8.23529 2.81733 9.91403 2.09074C11.5928 1.36416 30.2986 5.23958 30.2986 5.23958C30.2986 5.23958 40.6395 9.66289 40.8507 15.4128C40.9653 18.5334 40.6109 18.3194 38.1284 22.9215M35.3348 27.0392C39.1747 27.0392 45.6471 27.0392 45.6471 27.0392M35.3348 27.0392C36.2385 25.4312 37.2248 24.5296 38.1284 22.9215M45.6471 27.0392C45.6471 27.0392 45.6471 27.2815 45.6471 27.5237C45.6471 27.7658 51.6425 27.5237 52.6018 27.5237C53.5611 27.5237 55 26.5549 55 24.8593C55 23.1636 53.5611 22.4371 52.6018 22.4371C51.6425 22.4371 45.6471 22.1948 45.6471 22.4371C45.6471 22.6794 45.6471 22.9215 45.6471 22.9215M45.6471 27.0392V22.9215M45.6471 22.9215C45.6471 22.9215 41.0646 22.9215 38.1284 22.9215" stroke="#192A39" stroke-width="3"/>
</svg>
