<svg width="20" height="21" viewBox="0 0 20 21" fill="none" xmlns="http://www.w3.org/2000/svg">
<path fill-rule="evenodd" clip-rule="evenodd" d="M6.5 15.75C6.5 15.3358 6.83579 15 7.25 15H12.25C12.6642 15 13 15.3358 13 15.75C13 16.1642 12.6642 16.5 12.25 16.5H7.25C6.83579 16.5 6.5 16.1642 6.5 15.75Z" fill="#395963"/>
<path fill-rule="evenodd" clip-rule="evenodd" d="M2.70287 3.73703C2.84465 3.5858 3.0427 3.5 3.25 3.5H16.25C16.4573 3.5 16.6554 3.5858 16.7971 3.73703C16.9389 3.88825 17.0118 4.09142 16.9984 4.29829L15.9984 19.7983C15.973 20.1929 15.6455 20.5 15.25 20.5H4.25C3.85453 20.5 3.52702 20.1929 3.50156 19.7983L2.50156 4.29829C2.48821 4.09142 2.56108 3.88825 2.70287 3.73703ZM4.04995 5L4.95317 19H14.5468L15.4501 5H4.04995Z" fill="#395963"/>
<path fill-rule="evenodd" clip-rule="evenodd" d="M0 4.25C0 3.83579 0.335786 3.5 0.75 3.5H18.75C19.1642 3.5 19.5 3.83579 19.5 4.25C19.5 4.66421 19.1642 5 18.75 5H0.75C0.335786 5 0 4.66421 0 4.25Z" fill="#395963"/>
<path fill-rule="evenodd" clip-rule="evenodd" d="M5.11074 0.623277C5.17247 0.263213 5.48464 0 5.84996 0H13.65C14.0153 0 14.3274 0.263213 14.3892 0.623277L14.9892 4.12328L13.5107 4.37672L13.0176 1.5H6.48233L5.98918 4.37672L4.51074 4.12328L5.11074 0.623277Z" fill="#395963"/>
</svg>
