<svg width="44" height="44" viewBox="0 0 44 44" fill="none" xmlns="http://www.w3.org/2000/svg">
<circle cx="22" cy="22" r="22" fill="#192A39"/>
<path d="M26.4118 14C26.964 14 27.4118 13.5523 27.4118 13C27.4118 12.4477 26.964 12 26.4118 12V14ZM14.2205 30.7548L14.6768 29.865L14.6768 29.865L14.2205 30.7548ZM13.2436 29.7715L12.3514 30.2231L12.3514 30.2231L13.2436 29.7715ZM30.6387 29.7715L29.7465 29.3198L29.7465 29.3198L30.6387 29.7715ZM29.6619 30.7548L29.2055 29.865L29.2055 29.865L29.6619 30.7548ZM14.2205 13.2452L14.6768 14.135L14.6768 14.135L14.2205 13.2452ZM13.2436 14.2285L14.1358 14.6802L14.1358 14.6802L13.2436 14.2285ZM31.8824 23.125C31.8824 22.5727 31.4346 22.125 30.8824 22.125C30.3301 22.125 29.8824 22.5727 29.8824 23.125H31.8824ZM22.8041 24.5712L22.0922 23.8688L22.0922 23.8688L22.8041 24.5712ZM32.7119 15.9523C33.0997 15.5592 33.0955 14.926 32.7023 14.5381C32.3092 14.1503 31.676 14.1545 31.2881 14.5477L32.7119 15.9523ZM21.218 24.5712L21.9299 23.8688L21.9299 23.8688L21.218 24.5712ZM18.1825 20.0704C17.7946 19.6773 17.1614 19.673 16.7683 20.0609C16.3751 20.4487 16.3708 21.0819 16.7587 21.475L18.1825 20.0704ZM16.5765 14H26.4118V12H16.5765V14ZM27.3059 30H16.5765V32H27.3059V30ZM14 27.4V16.6H12V27.4H14ZM16.5765 30C15.9339 30 15.5125 29.9992 15.1903 29.9727C14.8799 29.9472 14.7509 29.9029 14.6768 29.865L13.7641 31.6446C14.1683 31.8518 14.5913 31.9302 15.0264 31.966C15.4496 32.0008 15.9671 32 16.5765 32V30ZM12 27.4C12 28.0137 11.9992 28.5337 12.0337 28.9587C12.0692 29.3952 12.1467 29.8186 12.3514 30.2231L14.1358 29.3198C14.097 29.2431 14.0527 29.1108 14.0272 28.7969C14.0008 28.4715 14 28.0465 14 27.4H12ZM14.6768 29.865C14.4449 29.746 14.2552 29.5556 14.1358 29.3198L12.3514 30.2231C12.6607 30.8341 13.1549 31.3321 13.7641 31.6446L14.6768 29.865ZM29.8824 27.4C29.8824 28.0465 29.8816 28.4715 29.8552 28.7969C29.8297 29.1108 29.7854 29.2431 29.7465 29.3198L31.5309 30.2231C31.7357 29.8186 31.8132 29.3952 31.8486 28.9587C31.8831 28.5337 31.8824 28.0137 31.8824 27.4H29.8824ZM27.3059 32C27.9152 32 28.4327 32.0008 28.856 31.966C29.2911 31.9302 29.7141 31.8518 30.1182 31.6446L29.2055 29.865C29.1315 29.9029 29.0024 29.9472 28.6921 29.9727C28.3698 29.9992 27.9484 30 27.3059 30V32ZM29.7465 29.3198C29.6272 29.5556 29.4374 29.746 29.2055 29.865L30.1182 31.6446C30.7275 31.3321 31.2216 30.8341 31.5309 30.2231L29.7465 29.3198ZM16.5765 12C15.9671 12 15.4496 11.9992 15.0264 12.034C14.5913 12.0698 14.1683 12.1482 13.7641 12.3554L14.6768 14.135C14.7509 14.0971 14.8799 14.0528 15.1903 14.0273C15.5125 14.0008 15.9339 14 16.5765 14V12ZM14 16.6C14 15.9535 14.0008 15.5285 14.0272 15.2031C14.0527 14.8892 14.097 14.7569 14.1358 14.6802L12.3514 13.7769C12.1467 14.1814 12.0692 14.6048 12.0337 15.0413C11.9992 15.4663 12 15.9863 12 16.6H14ZM13.7641 12.3554C13.1549 12.6679 12.6607 13.1659 12.3514 13.7769L14.1358 14.6802C14.2552 14.4444 14.4449 14.254 14.6768 14.135L13.7641 12.3554ZM31.8824 27.4V23.125H29.8824V27.4H31.8824ZM23.5159 25.2735L32.7119 15.9523L31.2881 14.5477L22.0922 23.8688L23.5159 25.2735ZM21.9299 23.8688L18.1825 20.0704L16.7587 21.475L20.5061 25.2735L21.9299 23.8688ZM22.0922 23.8688C22.0467 23.915 21.9754 23.915 21.9299 23.8688L20.5061 25.2735C21.3348 26.1134 22.6873 26.1134 23.5159 25.2735L22.0922 23.8688Z" fill="#F5F7F9"/>
</svg>
