<svg width="29" height="31" viewBox="0 0 29 31" fill="none" xmlns="http://www.w3.org/2000/svg">
<path d="M18.6726 27.4119C17.5683 28.4003 16.1177 29 14.529 29C12.9403 29 11.4898 28.4003 10.3855 27.4119M23.9218 16.5814V11.5295C23.9218 6.25287 19.7322 2 14.529 2C9.32591 2 5.07958 6.07156 5.07958 11.5295V16.5471V16.5471C5.07958 18.0655 4.26589 19.4257 3.35637 20.6415L2.02119 22.4263C2.01222 22.4383 2.00481 22.4516 2.00229 22.4664C1.98652 22.5586 2.05404 22.647 2.14683 22.647H26.8438C26.9421 22.647 27.0138 22.5569 26.9977 22.4622C26.9952 22.4474 26.9878 22.434 26.9788 22.4219L25.594 20.5637C24.7121 19.3801 23.9218 18.0574 23.9218 16.5814V16.5814Z" stroke="#F5F7F9" stroke-width="3" stroke-linecap="round"/>
</svg>
