<svg width="30" height="26" viewBox="0 0 30 26" fill="none" xmlns="http://www.w3.org/2000/svg">
<path fill-rule="evenodd" clip-rule="evenodd" d="M7.72889 0C3.24372 0 -0.299516 3.87245 0.0200384 8.4251L0.68248 17.8628C0.971363 21.9785 4.33667 25.1672 8.39133 25.1672H21.6087C25.6633 25.1672 29.0286 21.9785 29.3175 17.8628L29.98 8.42509C30.2995 3.87244 26.7563 0 22.2711 0H7.72889ZM3.84755 5.28188C4.67301 4.00025 6.09705 3.1459 7.72889 3.1459L22.2711 3.1459C23.903 3.1459 25.3271 4.00029 26.1525 5.28197L18.0536 12.4934C16.3053 14.0502 13.6948 14.0502 11.9465 12.4934L3.84755 5.28188ZM3.1484 8.83951L3.76602 17.6387C3.93935 20.1081 5.95853 22.0213 8.39133 22.0213H21.6087C24.0415 22.0213 26.0606 20.1081 26.234 17.6387L26.8516 8.83966L20.0893 14.861C17.1755 17.4555 12.8247 17.4555 9.91084 14.861L3.1484 8.83951Z" fill="#CDD1CD"/>
</svg>
