<svg width="19" height="22" viewBox="0 0 19 22" fill="none" xmlns="http://www.w3.org/2000/svg">
<path fill-rule="evenodd" clip-rule="evenodd" d="M18.5415 20.8333C18.5415 20.4053 18.1945 20.0583 17.7665 20.0583H1.23317C0.805149 20.0583 0.458169 20.4053 0.458169 20.8333C0.458169 21.2614 0.805149 21.6083 1.23317 21.6083H17.7665C18.1945 21.6083 18.5415 21.2614 18.5415 20.8333Z" fill="#606060"/>
<path d="M10.9746 14.4474C10.7115 14.2423 10.473 14.0037 9.99585 13.5266L3.88194 7.41267C4.71405 7.06634 5.6996 6.49745 6.63169 5.56537C7.56392 4.63314 8.13284 3.64742 8.47915 2.81523L14.5932 8.92925L14.5932 8.92928C15.0703 9.40638 15.3089 9.64494 15.514 9.90798C15.756 10.2183 15.9635 10.554 16.1328 10.9092C16.2763 11.2104 16.383 11.5304 16.5964 12.1706L17.7216 15.5461C17.8266 15.8611 17.7446 16.2084 17.5098 16.4432C17.275 16.678 16.9277 16.76 16.6127 16.655L13.2371 15.5298C12.597 15.3164 12.277 15.2097 11.9758 15.0662C11.6206 14.8969 11.2849 14.6894 10.9746 14.4474Z" fill="#606060"/>
<path d="M2.1854 5.71613C0.91589 4.44662 0.91589 2.38832 2.1854 1.11881C3.45492 -0.150707 5.51321 -0.150707 6.78273 1.11881L7.51601 1.85209C7.50597 1.88242 7.49556 1.91316 7.48475 1.9443C7.21598 2.719 6.70886 3.73457 5.75487 4.68856C4.80089 5.64254 3.78532 6.14966 3.01062 6.41844C2.97962 6.42919 2.94902 6.43956 2.91883 6.44956L2.1854 5.71613Z" fill="#606060"/>
</svg>
