<svg width="30" height="30" viewBox="0 0 30 30" fill="none" xmlns="http://www.w3.org/2000/svg">
<path fill-rule="evenodd" clip-rule="evenodd" d="M11.25 8.75C11.25 6.67893 12.9289 5 15 5C17.0711 5 18.75 6.67893 18.75 8.75C18.75 10.8211 17.0711 12.5 15 12.5C12.9289 12.5 11.25 10.8211 11.25 8.75ZM15 2.5C11.5482 2.5 8.75 5.29822 8.75 8.75C8.75 12.2018 11.5482 15 15 15C18.4518 15 21.25 12.2018 21.25 8.75C21.25 5.29822 18.4518 2.5 15 2.5ZM7.5 26.25C7.5 22.1079 10.8579 18.75 15 18.75C19.1421 18.75 22.5 22.1079 22.5 26.25C22.5 26.9404 23.0596 27.5 23.75 27.5C24.4404 27.5 25 26.9404 25 26.25C25 20.7272 20.5228 16.25 15 16.25C9.47715 16.25 5 20.7272 5 26.25C5 26.9404 5.55964 27.5 6.25 27.5C6.94036 27.5 7.5 26.9404 7.5 26.25Z" fill="white"/>
</svg>
