<svg width="16" height="16" viewBox="0 0 16 16" fill="none" xmlns="http://www.w3.org/2000/svg">
<path d="M8.00031 1.15771C7.16058 1.15771 6.47984 1.83845 6.47984 2.67818V6.09924C6.47984 6.30917 6.30966 6.47935 6.09972 6.47935H2.67867C1.83894 6.47935 1.1582 7.16009 1.1582 7.99982C1.1582 8.83955 1.83894 9.52029 2.67867 9.52029L6.09972 9.52029C6.30966 9.52029 6.47984 9.69047 6.47984 9.90041V13.3215C6.47984 14.1612 7.16058 14.8419 8.00031 14.8419C8.84004 14.8419 9.52078 14.1612 9.52078 13.3215V9.90041C9.52078 9.69047 9.69096 9.52029 9.90089 9.52029H13.3219C14.1617 9.52029 14.8424 8.83955 14.8424 7.99982C14.8424 7.16009 14.1617 6.47935 13.3219 6.47935H9.90089C9.69096 6.47935 9.52078 6.30917 9.52078 6.09924V2.67818C9.52078 1.83845 8.84004 1.15771 8.00031 1.15771Z" stroke="#192A39" stroke-width="1.5"/>
</svg>
