<svg width="37" height="35" viewBox="0 0 37 35" fill="none" xmlns="http://www.w3.org/2000/svg">
<path d="M17.1667 20.9583C22.4019 20.9583 26.6458 16.7144 26.6458 11.4792C26.6458 6.24397 22.4019 2 17.1667 2C11.9315 2 7.6875 6.24397 7.6875 11.4792C7.6875 16.7144 11.9315 20.9583 17.1667 20.9583ZM17.1667 20.9583C8.79035 20.9583 2 26.0511 2 32.3333M17.1667 20.9583C25.543 20.9583 32.3333 26.0511 32.3333 32.3333" stroke="#192A39" stroke-width="3" stroke-linecap="round"/>
<path d="M16 13.8531L37 13.6665V34.6665H16V13.8531Z" fill="#F5F7F9"/>
<path d="M36.0663 17.8667H33.2663V16.9333C33.2663 16.6858 33.168 16.4484 32.993 16.2734C32.8179 16.0983 32.5805 16 32.333 16H22.9997C22.7521 16 22.5147 16.0983 22.3397 16.2734C22.1647 16.4484 22.0663 16.6858 22.0663 16.9333V17.8667H19.2663C19.0188 17.8667 18.7814 17.965 18.6064 18.14C18.4313 18.3151 18.333 18.5525 18.333 18.8V21.6C18.333 22.5901 18.7263 23.5397 19.4265 24.2399C20.1266 24.94 21.0762 25.3333 22.0663 25.3333H23.5037C24.3479 26.2752 25.4861 26.9035 26.733 27.116V29.0667H25.7997C25.0571 29.0667 24.3449 29.3617 23.8198 29.8868C23.2947 30.4119 22.9997 31.1241 22.9997 31.8667V33.7333C22.9997 33.9809 23.098 34.2183 23.273 34.3933C23.4481 34.5683 23.6855 34.6667 23.933 34.6667H31.3997C31.6472 34.6667 31.8846 34.5683 32.0596 34.3933C32.2347 34.2183 32.333 33.9809 32.333 33.7333V31.8667C32.333 31.1241 32.038 30.4119 31.5129 29.8868C30.9878 29.3617 30.2756 29.0667 29.533 29.0667H28.5997V27.116C29.8465 26.9035 30.9848 26.2752 31.829 25.3333H33.2663C34.2565 25.3333 35.2061 24.94 35.9062 24.2399C36.6063 23.5397 36.9997 22.5901 36.9997 21.6V18.8C36.9997 18.5525 36.9013 18.3151 36.7263 18.14C36.5513 17.965 36.3139 17.8667 36.0663 17.8667ZM22.0663 23.4667C21.5713 23.4667 21.0965 23.27 20.7464 22.9199C20.3963 22.5699 20.1997 22.0951 20.1997 21.6V19.7333H22.0663V21.6C22.0684 22.2363 22.1789 22.8675 22.393 23.4667H22.0663ZM29.533 30.9333C29.7805 30.9333 30.0179 31.0317 30.193 31.2067C30.368 31.3817 30.4663 31.6191 30.4663 31.8667V32.8H24.8663V31.8667C24.8663 31.6191 24.9647 31.3817 25.1397 31.2067C25.3147 31.0317 25.5521 30.9333 25.7997 30.9333H29.533ZM31.3997 21.6C31.3997 22.5901 31.0063 23.5397 30.3062 24.2399C29.6061 24.94 28.6565 25.3333 27.6663 25.3333C26.6762 25.3333 25.7266 24.94 25.0265 24.2399C24.3263 23.5397 23.933 22.5901 23.933 21.6V17.8667H31.3997V21.6ZM35.133 21.6C35.133 22.0951 34.9363 22.5699 34.5863 22.9199C34.2362 23.27 33.7614 23.4667 33.2663 23.4667H32.9397C33.1538 22.8675 33.2643 22.2363 33.2663 21.6V19.7333H35.133V21.6Z" fill="#192A39"/>
</svg>
