<svg width="39" height="34" viewBox="0 0 39 34" fill="none" xmlns="http://www.w3.org/2000/svg">
<path d="M37 8.21757V23.6365C37 25.2826 37 26.1056 36.6821 26.7343C36.4025 27.2874 35.9563 27.737 35.4075 28.0188C34.7836 28.3391 33.9668 28.3391 32.3333 28.3391C31.689 28.3391 31.1667 28.8554 31.1667 29.4922V31.2668C31.1667 31.873 30.4636 32.2164 29.9763 31.8481L27.0066 29.6037C26.386 29.1347 26.0756 28.9001 25.7328 28.7335C25.4286 28.5857 25.1061 28.4778 24.7736 28.4126C24.3989 28.3391 24.0082 28.3391 23.2269 28.3391H15.6111M6.66667 2H26.5C28.1335 2 28.9502 2 29.5741 2.32035C30.1229 2.60213 30.5691 3.05176 30.8488 3.60479C31.1667 4.23351 31.1667 5.05654 31.1667 6.70261V17.8713C31.1667 19.5174 31.1667 20.3404 30.8488 20.9691C30.5691 21.5222 30.1229 21.9718 29.5741 22.2536C28.9502 22.5739 28.1335 22.5739 26.5 22.5739H15.7731C14.9918 22.5739 14.6011 22.5739 14.2264 22.6474C13.8939 22.7126 13.5714 22.8205 13.2672 22.9683C12.9244 23.1349 12.614 23.3695 11.9934 23.8385L9.02374 26.0829C8.53644 26.4512 7.83333 26.1078 7.83333 25.5015V23.727C7.83333 23.0901 7.311 22.5739 6.66667 22.5739C5.03318 22.5739 4.21644 22.5739 3.59253 22.2536C3.04372 21.9718 2.59753 21.5222 2.3179 20.9691C2 20.3404 2 19.5174 2 17.8713V6.70261C2 5.05654 2 4.23351 2.3179 3.60479C2.59753 3.05176 3.04372 2.60213 3.59253 2.32035C4.21644 2 5.03318 2 6.66667 2Z" stroke="#192A39" stroke-width="3" stroke-linecap="round"/>
</svg>
