<svg width="41" height="32" viewBox="0 0 41 32" fill="none" xmlns="http://www.w3.org/2000/svg">
<path d="M2.46023 5.00824L6.99795 6.09765M3.57113 9.34726L7.50184 6.93852C7.96801 6.65285 8.11433 6.04337 7.82867 5.5772L5.41992 1.64648" stroke="#192A39" stroke-width="2" stroke-linecap="round"/>
<path d="M33.86 19.2546C33.8217 19.1446 33.7687 19.04 33.7025 18.9437L33.4925 18.6847L33.23 18.4775C33.1324 18.4121 33.0265 18.3598 32.915 18.322C32.8108 18.2694 32.6984 18.2344 32.5825 18.2184C32.3014 18.1628 32.0107 18.1763 31.736 18.2576C31.4614 18.3389 31.2112 18.4856 31.0075 18.6847C30.9322 18.7668 30.8621 18.8533 30.7975 18.9437C30.7313 19.04 30.6783 19.1446 30.64 19.2546C30.5895 19.3525 30.5542 19.4573 30.535 19.5655C30.5264 19.6805 30.5264 19.7959 30.535 19.9109C30.5369 20.3639 30.7192 20.7981 31.0425 21.1198C31.2044 21.2868 31.4015 21.4165 31.62 21.4997C31.8195 21.5839 32.0331 21.6308 32.25 21.6379C32.7141 21.6379 33.1592 21.4559 33.4874 21.1321C33.8156 20.8082 34 20.3689 34 19.9109C34.0086 19.7959 34.0086 19.6805 34 19.5655C33.9699 19.4553 33.9226 19.3505 33.86 19.2546ZM37.08 11.4658L34.7 4.45407C34.337 3.44071 33.6636 2.56386 32.7731 1.94499C31.8826 1.32613 30.8191 0.995895 29.73 1.00004H17.27C16.1809 0.995895 15.1174 1.32613 14.2269 1.94499C13.3364 2.56386 12.663 3.44071 12.3 4.45407L9.92 11.4658C8.80057 11.7551 7.80935 12.4012 7.10045 13.3038C6.39155 14.2064 6.00468 15.3149 6 16.4568V23.3649C6.00304 24.4338 6.34104 25.4757 6.96764 26.3476C7.59425 27.2195 8.47879 27.8788 9.5 28.2351V30.273C9.5 30.731 9.68437 31.1703 10.0126 31.4942C10.3408 31.818 10.7859 32 11.25 32C11.7141 32 12.1592 31.818 12.4874 31.4942C12.8156 31.1703 13 30.731 13 30.273V28.546H34V30.273C34 30.731 34.1844 31.1703 34.5126 31.4942C34.8407 31.818 35.2859 32 35.75 32C36.2141 32 36.6592 31.818 36.9874 31.4942C37.3156 31.1703 37.5 30.731 37.5 30.273V28.2351C38.5212 27.8788 39.4058 27.2195 40.0324 26.3476C40.659 25.4757 40.997 24.4338 41 23.3649V16.4568C40.9953 15.3149 40.6084 14.2064 39.8995 13.3038C39.1906 12.4012 38.1994 11.7551 37.08 11.4658ZM15.6075 5.54209C15.7249 5.19907 15.9486 4.90114 16.2469 4.6904C16.5452 4.47967 16.9031 4.36679 17.27 4.36772H29.73C30.1116 4.34807 30.4893 4.45222 30.8053 4.66428C31.1213 4.87633 31.3582 5.18463 31.48 5.54209L33.3175 11.2758H13.6825L15.6075 5.54209ZM37.5 23.3649C37.5 23.8229 37.3156 24.2622 36.9874 24.5861C36.6592 24.91 36.2141 25.0919 35.75 25.0919H11.25C10.7859 25.0919 10.3408 24.91 10.0126 24.5861C9.68437 24.2622 9.5 23.8229 9.5 23.3649V16.4568C9.5 15.9988 9.68437 15.5595 10.0126 15.2357C10.3408 14.9118 10.7859 14.7298 11.25 14.7298H35.75C36.2141 14.7298 36.6592 14.9118 36.9874 15.2357C37.3156 15.5595 37.5 15.9988 37.5 16.4568V23.3649ZM16.36 19.2546C16.3217 19.1446 16.2687 19.04 16.2025 18.9437L15.9925 18.6847C15.7464 18.4451 15.4339 18.2827 15.0944 18.2182C14.7549 18.1536 14.4037 18.1898 14.085 18.322C13.8702 18.4042 13.6739 18.5275 13.5075 18.6847C13.4322 18.7668 13.3621 18.8533 13.2975 18.9437C13.2313 19.04 13.1783 19.1446 13.14 19.2546C13.0774 19.3505 13.0301 19.4553 13 19.5655C12.9914 19.6805 12.9914 19.7959 13 19.9109C13.0015 20.2524 13.1055 20.5859 13.299 20.8691C13.4925 21.1523 13.7667 21.3725 14.087 21.5019C14.4073 21.6313 14.7593 21.6641 15.0985 21.5961C15.4377 21.528 15.7488 21.3623 15.9925 21.1198C16.3158 20.7981 16.4981 20.3639 16.5 19.9109C16.5086 19.7959 16.5086 19.6805 16.5 19.5655C16.4699 19.4553 16.4226 19.3505 16.36 19.2546Z" fill="#192A39"/>
</svg>
