<svg width="58" height="39" viewBox="0 0 58 39" fill="none" xmlns="http://www.w3.org/2000/svg">
<path d="M6.21916 36.133L6.91591 34.8046L6.21916 36.133ZM2.84222 32.6567L4.18656 31.9913L2.84222 32.6567ZM35.1578 32.6567L33.8134 31.9913L35.1578 32.6567ZM31.7808 36.133L31.0841 34.8046L31.7808 36.133ZM31.7808 2.86699L31.0841 4.19536L31.7808 2.86699ZM35.1578 6.34326L33.8134 7.00866L35.1578 6.34326ZM6.21916 2.86699L6.91591 4.19536L6.21916 2.86699ZM2.84222 6.34326L4.18656 7.00866L2.84222 6.34326ZM8.18182 8.45455C7.35339 8.45455 6.68182 9.12612 6.68182 9.95455C6.68182 10.783 7.35339 11.4545 8.18182 11.4545V8.45455ZM14.3636 11.4545C15.1921 11.4545 15.8636 10.783 15.8636 9.95455C15.8636 9.12612 15.1921 8.45455 14.3636 8.45455V11.4545ZM8.18182 14.8182C7.35339 14.8182 6.68182 15.4898 6.68182 16.3182C6.68182 17.1466 7.35339 17.8182 8.18182 17.8182L8.18182 14.8182ZM14.3636 17.8182C15.1921 17.8182 15.8636 17.1466 15.8636 16.3182C15.8636 15.4898 15.1921 14.8182 14.3636 14.8182V17.8182ZM8.18182 21.1818C7.35339 21.1818 6.68182 21.8534 6.68182 22.6818C6.68182 23.5102 7.35339 24.1818 8.18182 24.1818L8.18182 21.1818ZM14.3636 24.1818C15.1921 24.1818 15.8636 23.5102 15.8636 22.6818C15.8636 21.8534 15.1921 21.1818 14.3636 21.1818V24.1818ZM8.18182 27.5455C7.35339 27.5455 6.68182 28.217 6.68182 29.0455C6.68182 29.8739 7.35339 30.5455 8.18182 30.5455V27.5455ZM29.8182 30.5455C30.6466 30.5455 31.3182 29.8739 31.3182 29.0455C31.3182 28.217 30.6466 27.5455 29.8182 27.5455L29.8182 30.5455ZM21.3893 22.5084L22.086 21.1801L21.3893 22.5084ZM20.7139 21.8132L22.0582 21.1478L20.7139 21.8132ZM29.6497 21.8132L28.3054 21.1478L29.6497 21.8132ZM28.9743 22.5084L28.2776 21.1801L28.9743 22.5084ZM28.9743 10.1279L28.2776 11.4563L28.9743 10.1279ZM29.6497 10.8232L28.3054 11.4886L29.6497 10.8232ZM21.3893 10.1279L22.086 11.4563L21.3893 10.1279ZM20.7139 10.8232L22.0582 11.4886L20.7139 10.8232ZM14.3636 3.5H23.6364V0.5H14.3636V3.5ZM34.5 14.7273V24.2727H37.5V14.7273H34.5ZM23.6364 35.5H14.3636V38.5H23.6364V35.5ZM3.5 24.2727V14.7273H0.5V24.2727H3.5ZM14.3636 35.5C12.1743 35.5 10.6252 35.4988 9.41409 35.3969C8.22183 35.2966 7.4919 35.1068 6.91591 34.8046L5.52242 37.4614C6.59939 38.0262 7.77785 38.2699 9.16266 38.3863C10.5286 38.5012 12.2253 38.5 14.3636 38.5V35.5ZM0.5 24.2727C0.5 26.4762 0.498899 28.2164 0.60998 29.6159C0.722353 31.0318 0.956591 32.2285 1.49789 33.3221L4.18656 31.9913C3.88563 31.3834 3.69876 30.6156 3.60058 29.3786C3.5011 28.1253 3.5 26.5243 3.5 24.2727H0.5ZM6.91591 34.8046C5.74749 34.1918 4.78952 33.2095 4.18656 31.9913L1.49789 33.3221C2.37661 35.0975 3.78288 36.549 5.52242 37.4614L6.91591 34.8046ZM34.5 24.2727C34.5 26.5243 34.4989 28.1253 34.3994 29.3786C34.3012 30.6156 34.1144 31.3834 33.8134 31.9913L36.5021 33.3221C37.0434 32.2285 37.2776 31.0318 37.39 29.6159C37.5011 28.2164 37.5 26.4762 37.5 24.2727H34.5ZM23.6364 38.5C25.7747 38.5 27.4714 38.5012 28.8373 38.3863C30.2221 38.2699 31.4006 38.0262 32.4776 37.4614L31.0841 34.8046C30.5081 35.1068 29.7782 35.2966 28.5859 35.3969C27.3748 35.4988 25.8257 35.5 23.6364 35.5V38.5ZM33.8134 31.9913C33.2105 33.2095 32.2525 34.1918 31.0841 34.8046L32.4776 37.4614C34.2171 36.549 35.6234 35.0975 36.5021 33.3221L33.8134 31.9913ZM23.6364 3.5C25.8257 3.5 27.3748 3.50124 28.5859 3.6031C29.7782 3.70337 30.5081 3.89324 31.0841 4.19536L32.4776 1.53863C31.4006 0.97375 30.2221 0.730123 28.8373 0.613652C27.4714 0.498764 25.7747 0.5 23.6364 0.5V3.5ZM37.5 14.7273C37.5 12.5238 37.5011 10.7836 37.39 9.38406C37.2776 7.96823 37.0434 6.77145 36.5021 5.67785L33.8134 7.00866C34.1144 7.61663 34.3012 8.38438 34.3994 9.62142C34.4989 10.8747 34.5 12.4757 34.5 14.7273H37.5ZM31.0841 4.19536C32.2525 4.80821 33.2105 5.79048 33.8134 7.00866L36.5021 5.67785C35.6234 3.90254 34.2171 2.45104 32.4776 1.53863L31.0841 4.19536ZM14.3636 0.5C12.2253 0.5 10.5286 0.498764 9.16266 0.613652C7.77785 0.730123 6.59939 0.97375 5.52242 1.53863L6.91591 4.19536C7.4919 3.89324 8.22183 3.70337 9.41409 3.6031C10.6252 3.50124 12.1743 3.5 14.3636 3.5V0.5ZM3.5 14.7273C3.5 12.4757 3.5011 10.8747 3.60058 9.62142C3.69876 8.38438 3.88563 7.61663 4.18656 7.00866L1.49789 5.67785C0.956591 6.77145 0.722353 7.96823 0.60998 9.38406C0.498899 10.7836 0.5 12.5238 0.5 14.7273H3.5ZM5.52242 1.53863C3.78288 2.45104 2.37661 3.90254 1.49789 5.67785L4.18656 7.00866C4.78952 5.79048 5.74749 4.80821 6.91591 4.19536L5.52242 1.53863ZM8.18182 11.4545H14.3636V8.45455L8.18182 8.45455V11.4545ZM8.18182 17.8182L14.3636 17.8182V14.8182L8.18182 14.8182L8.18182 17.8182ZM8.18182 24.1818H14.3636V21.1818H8.18182L8.18182 24.1818ZM8.18182 30.5455L29.8182 30.5455L29.8182 27.5455L8.18182 27.5455V30.5455ZM23.0182 11.4545H27.3455V8.45455H23.0182V11.4545ZM28.3182 12.5V20.1364H31.3182V12.5H28.3182ZM27.3455 21.1818H23.0182V24.1818H27.3455V21.1818ZM22.0455 20.1364V12.5H19.0455V20.1364H22.0455ZM23.0182 21.1818C22.5599 21.1818 22.3091 21.1806 22.1288 21.1654C21.9674 21.1518 22.0008 21.1354 22.086 21.1801L20.6925 23.8368C21.1083 24.0549 21.5234 24.1251 21.8774 24.1549C22.2126 24.1831 22.6109 24.1818 23.0182 24.1818V21.1818ZM19.0455 20.1364C19.0455 20.5578 19.0444 20.9615 19.0712 21.2999C19.0994 21.6546 19.1652 22.0656 19.3696 22.4786L22.0582 21.1478C22.0942 21.2204 22.0758 21.2385 22.0618 21.0626C22.0466 20.8704 22.0455 20.6059 22.0455 20.1364H19.0455ZM22.086 21.1801C22.0808 21.1773 22.0685 21.1685 22.0582 21.1478L19.3696 22.4786C19.6556 23.0565 20.1162 23.5345 20.6925 23.8368L22.086 21.1801ZM28.3182 20.1364C28.3182 20.6059 28.3171 20.8704 28.3018 21.0626C28.2879 21.2385 28.2694 21.2204 28.3054 21.1478L30.9941 22.4786C31.1985 22.0656 31.2643 21.6546 31.2924 21.2999C31.3193 20.9615 31.3182 20.5578 31.3182 20.1364H28.3182ZM27.3455 24.1818C27.7528 24.1818 28.1511 24.1831 28.4862 24.1549C28.8402 24.1251 29.2553 24.0549 29.6711 23.8368L28.2776 21.1801C28.3628 21.1354 28.3962 21.1518 28.2348 21.1654C28.0545 21.1806 27.8037 21.1818 27.3455 21.1818V24.1818ZM28.3054 21.1478C28.2951 21.1685 28.2828 21.1773 28.2776 21.1801L29.6711 23.8368C30.2474 23.5345 30.708 23.0565 30.9941 22.4786L28.3054 21.1478ZM27.3455 11.4545C27.8037 11.4545 28.0545 11.4558 28.2348 11.4709C28.3962 11.4845 28.3628 11.501 28.2776 11.4563L29.6711 8.79958C29.2553 8.5815 28.8402 8.51127 28.4862 8.4815C28.1511 8.45331 27.7528 8.45455 27.3455 8.45455V11.4545ZM31.3182 12.5C31.3182 12.0786 31.3193 11.6748 31.2924 11.3364C31.2643 10.9817 31.1985 10.5708 30.9941 10.1578L28.3054 11.4886C28.2694 11.4159 28.2879 11.3979 28.3018 11.5738C28.3171 11.7659 28.3182 12.0305 28.3182 12.5H31.3182ZM28.2776 11.4563C28.2828 11.4591 28.2951 11.4678 28.3054 11.4886L30.9941 10.1578C30.708 9.57988 30.2474 9.10189 29.6711 8.79958L28.2776 11.4563ZM23.0182 8.45455C22.6109 8.45455 22.2126 8.45331 21.8774 8.4815C21.5234 8.51127 21.1083 8.5815 20.6925 8.79958L22.086 11.4563C22.0008 11.501 21.9674 11.4845 22.1288 11.4709C22.3091 11.4558 22.5599 11.4545 23.0182 11.4545V8.45455ZM22.0455 12.5C22.0455 12.0305 22.0466 11.7659 22.0618 11.5738C22.0758 11.3979 22.0942 11.4159 22.0582 11.4886L19.3696 10.1578C19.1652 10.5708 19.0994 10.9817 19.0712 11.3364C19.0444 11.6748 19.0455 12.0786 19.0455 12.5H22.0455ZM20.6925 8.79958C20.1162 9.10189 19.6556 9.57988 19.3696 10.1578L22.0582 11.4886C22.0685 11.4678 22.0808 11.4591 22.086 11.4563L20.6925 8.79958Z" fill="#192A39"/>
<path d="M49 13V27M56 20L42 20" stroke="#192A39" stroke-width="3" stroke-linecap="round"/>
</svg>
