<svg width="39" height="35" viewBox="0 0 39 35" fill="none" xmlns="http://www.w3.org/2000/svg">
<path d="M12.5 9.26252C11.6716 9.26252 11 9.93409 11 10.7625C11 11.5909 11.6716 12.2625 12.5 12.2625V9.26252ZM26.5 12.2625C27.3284 12.2625 28 11.5909 28 10.7625C28 9.93409 27.3284 9.26252 26.5 9.26252V12.2625ZM12.5 16.2725C11.6716 16.2725 11 16.9441 11 17.7725C11 18.601 11.6716 19.2725 12.5 19.2725V16.2725ZM19.5 19.2725C20.3284 19.2725 21 18.601 21 17.7725C21 16.9441 20.3284 16.2725 19.5 16.2725V19.2725ZM36.6185 24.6213L37.9554 25.3015V25.3015L36.6185 24.6213ZM35.089 26.153L35.7707 27.4891V27.4891L35.089 26.153ZM35.089 2.38202L35.7707 1.04591V1.04591L35.089 2.38202ZM36.6185 3.91377L37.9554 3.23355V3.23355L36.6185 3.91377ZM3.91103 2.38202L4.59279 3.71814L3.91103 2.38202ZM2.38148 3.91377L3.71838 4.59398H3.71838L2.38148 3.91377ZM4.11284 32.4692L4.97905 33.6938L4.97921 33.6937L4.11284 32.4692ZM11.0473 27.5629L10.1809 26.3384L10.1809 26.3384L11.0473 27.5629ZM2.15798 32.6295L3.38774 31.7706L3.38774 31.7706L2.15798 32.6295ZM3.93086 32.5782L3.25999 31.2366L3.25997 31.2366L3.93086 32.5782ZM2.74711 32.9941L2.52756 34.4779H2.52757L2.74711 32.9941ZM4.04721 32.5145L3.23766 31.2517L3.23745 31.2519L4.04721 32.5145ZM4.00157 32.5419L3.27026 31.2322L3.27016 31.2323L4.00157 32.5419ZM12.9695 26.5946L13.2451 28.069L13.2451 28.069L12.9695 26.5946ZM12.1508 26.8549L12.7776 28.2177L12.7777 28.2177L12.1508 26.8549ZM12.5 12.2625H26.5V9.26252H12.5V12.2625ZM12.5 19.2725H19.5V16.2725H12.5V19.2725ZM7.6 3.5H31.4V0.5H7.6V3.5ZM35.5 7.60801V20.927H38.5V7.60801H35.5ZM35.5 20.927C35.5 21.9332 35.4988 22.5978 35.4573 23.1071C35.4172 23.599 35.3469 23.8127 35.2816 23.9411L37.9554 25.3015C38.2716 24.6801 38.3921 24.0282 38.4473 23.3511C38.5012 22.6915 38.5 21.8838 38.5 20.927H35.5ZM31.4 28.0351C32.3553 28.0351 33.1621 28.0362 33.8211 27.9823C34.4977 27.9269 35.1495 27.8061 35.7707 27.4891L34.4072 24.8169C34.2798 24.8819 34.0672 24.9521 33.5765 24.9923C33.0682 25.0339 32.4049 25.0351 31.4 25.0351V28.0351ZM35.2816 23.9411C35.0896 24.3185 34.7834 24.625 34.4072 24.8169L35.7707 27.4891C36.7117 27.009 37.4763 26.2431 37.9554 25.3015L35.2816 23.9411ZM31.4 3.5C32.4049 3.5 33.0682 3.50117 33.5765 3.54276C34.0672 3.58291 34.2798 3.6531 34.4072 3.71814L35.7707 1.04591C35.1495 0.728919 34.4977 0.608105 33.8211 0.552749C33.1621 0.49883 32.3553 0.5 31.4 0.5V3.5ZM38.5 7.60801C38.5 6.65123 38.5012 5.84357 38.4473 5.18396C38.3921 4.5069 38.2716 3.85495 37.9554 3.23355L35.2816 4.59398C35.3469 4.72235 35.4172 4.93603 35.4573 5.4279C35.4988 5.93723 35.5 6.6018 35.5 7.60801H38.5ZM34.4072 3.71814C34.7834 3.91007 35.0896 4.21654 35.2816 4.59398L37.9554 3.23355C37.4763 2.29198 36.7117 1.52605 35.7707 1.04591L34.4072 3.71814ZM7.6 0.5C6.64469 0.5 5.83787 0.49883 5.17888 0.552749C4.50232 0.608105 3.85051 0.728919 3.22927 1.04591L4.59279 3.71814C4.72025 3.6531 4.93283 3.58291 5.42353 3.54276C5.9318 3.50117 6.59512 3.5 7.6 3.5V0.5ZM3.5 7.60801C3.5 6.6018 3.50116 5.93723 3.54272 5.4279C3.58285 4.93603 3.65307 4.72235 3.71838 4.59398L1.04457 3.23355C0.728411 3.85495 0.607891 4.5069 0.552652 5.18396C0.498837 5.84357 0.5 6.65123 0.5 7.60801H3.5ZM3.22927 1.04591C2.28829 1.52605 1.52365 2.29197 1.04457 3.23355L3.71838 4.59398C3.91042 4.21654 4.21664 3.91007 4.59279 3.71814L3.22927 1.04591ZM31.4 25.0351H14.2787V28.0351H31.4V25.0351ZM4.97921 33.6937L11.9137 28.7874L10.1809 26.3384L3.24648 31.2447L4.97921 33.6937ZM0.5 31.2766C0.5 31.6229 0.498509 31.9859 0.525973 32.2864C0.55323 32.5846 0.623328 33.0518 0.928215 33.4884L3.38774 31.7706C3.46311 31.8785 3.49685 31.9733 3.51031 32.0211C3.52183 32.0619 3.51859 32.0688 3.51352 32.0134C3.50857 31.9592 3.50447 31.877 3.50225 31.7474C3.50005 31.6185 3.5 31.4681 3.5 31.2766H0.5ZM3.25997 31.2366C3.10746 31.3129 2.98772 31.3722 2.88587 31.4203C2.78318 31.4687 2.71908 31.4959 2.67867 31.5112C2.63743 31.5267 2.64817 31.5193 2.6937 31.5112C2.74556 31.502 2.84256 31.4919 2.96665 31.5103L2.52757 34.4779C3.03167 34.5525 3.46211 34.422 3.73788 34.318C4.01215 34.2145 4.31701 34.0622 4.60174 33.9198L3.25997 31.2366ZM0.928214 33.4884C1.3023 34.024 1.88065 34.3822 2.52756 34.4779L2.96665 31.5103C3.13738 31.5355 3.28954 31.63 3.38774 31.7706L0.928214 33.4884ZM3.5 31.2766V7.60801H0.5V31.2766H3.5ZM3.24664 31.2446C3.23817 31.2506 3.23225 31.2548 3.22719 31.2583C3.22221 31.2618 3.21987 31.2635 3.21896 31.2641C3.21778 31.2649 3.22557 31.2595 3.23766 31.2517L4.85676 33.7773C4.90891 33.7439 4.95738 33.7091 4.97905 33.6938L3.24664 31.2446ZM4.60173 33.9199C4.62596 33.9077 4.67892 33.8816 4.73299 33.8514L3.27016 31.2323C3.27597 31.229 3.28105 31.2263 3.28497 31.2242C3.28862 31.2223 3.29059 31.2213 3.28984 31.2216C3.28893 31.2221 3.28648 31.2233 3.2811 31.2261C3.27565 31.2288 3.26921 31.232 3.25999 31.2366L4.60173 33.9199ZM3.23745 31.2519C3.24825 31.2449 3.25909 31.2384 3.27026 31.2322L4.73289 33.8515C4.77492 33.828 4.81641 33.8032 4.85697 33.7772L3.23745 31.2519ZM14.2787 25.0351C13.6724 25.0351 13.1803 25.0292 12.6939 25.1201L13.2451 28.069C13.3954 28.0409 13.5638 28.0351 14.2787 28.0351V25.0351ZM11.9137 28.7874C12.4975 28.3743 12.6386 28.2817 12.7776 28.2177L11.524 25.4922C11.0745 25.6989 10.6761 25.988 10.1809 26.3384L11.9137 28.7874ZM12.6939 25.1201C12.2901 25.1956 11.8972 25.3205 11.524 25.4922L12.7777 28.2177C12.9268 28.1491 13.0838 28.0992 13.2451 28.069L12.6939 25.1201Z" fill="#192A39"/>
</svg>
