<svg width="19" height="21" viewBox="0 0 19 21" fill="none" xmlns="http://www.w3.org/2000/svg">
<path d="M8.07143 8.38889C8.07143 7.8366 7.62371 7.38889 7.07143 7.38889C6.51914 7.38889 6.07143 7.8366 6.07143 8.38889H8.07143ZM6.07143 16.8333C6.07143 17.3856 6.51914 17.8333 7.07143 17.8333C7.62371 17.8333 8.07143 17.3856 8.07143 16.8333H6.07143ZM12.9286 8.38889C12.9286 7.8366 12.4809 7.38889 11.9286 7.38889C11.3763 7.38889 10.9286 7.8366 10.9286 8.38889H12.9286ZM10.9286 16.8333C10.9286 17.3856 11.3763 17.8333 11.9286 17.8333C12.4809 17.8333 12.9286 17.3856 12.9286 16.8333H10.9286ZM3.54031 19.7699L3.94528 18.8556H3.94528L3.54031 19.7699ZM2.47898 18.8473L3.34171 18.3416H3.34171L2.47898 18.8473ZM16.521 18.8473L15.6583 18.3416H15.6583L16.521 18.8473ZM15.4597 19.7699L15.0547 18.8556H15.0547L15.4597 19.7699ZM1 4.22222C0.447715 4.22222 0 4.66994 0 5.22222C0 5.77451 0.447715 6.22222 1 6.22222V4.22222ZM18 6.22222C18.5523 6.22222 19 5.77451 19 5.22222C19 4.66994 18.5523 4.22222 18 4.22222V6.22222ZM4.25 5.22222C4.25 5.77451 4.69772 6.22222 5.25 6.22222C5.80228 6.22222 6.25 5.77451 6.25 5.22222H4.25ZM12.75 5.22222C12.75 5.77451 13.1977 6.22222 13.75 6.22222C14.3023 6.22222 14.75 5.77451 14.75 5.22222H12.75ZM6.07143 8.38889V16.8333H8.07143V8.38889H6.07143ZM10.9286 8.38889V16.8333H12.9286V8.38889H10.9286ZM15.7857 5.22222V16.6222H17.7857V5.22222H15.7857ZM12.9 19H6.1V21H12.9V19ZM1.21429 5.22222V16.6222H3.21429V5.22222H1.21429ZM6.1 19C5.40557 19 4.93707 18.9994 4.57576 18.9738C4.22263 18.9487 4.05358 18.9035 3.94528 18.8556L3.13533 20.6842C3.54654 20.8664 3.97727 20.9363 4.43407 20.9687C4.88271 21.0006 5.4343 21 6.1 21V19ZM1.21429 16.6222C1.21429 17.1944 1.21326 17.6927 1.25176 18.1024C1.29182 18.5285 1.38084 18.9513 1.61626 19.353L3.34171 18.3416C3.31243 18.2917 3.2691 18.1931 3.24299 17.9152C3.21531 17.6208 3.21429 17.2323 3.21429 16.6222H1.21429ZM3.94528 18.8556C3.66269 18.7304 3.45939 18.5424 3.34171 18.3416L1.61626 19.353C1.96425 19.9467 2.504 20.4046 3.13533 20.6842L3.94528 18.8556ZM15.7857 16.6222C15.7857 17.2323 15.7847 17.6208 15.757 17.9152C15.7309 18.1931 15.6876 18.2917 15.6583 18.3416L17.3837 19.353C17.6192 18.9513 17.7082 18.5285 17.7482 18.1024C17.7867 17.6927 17.7857 17.1944 17.7857 16.6222H15.7857ZM12.9 21C13.5657 21 14.1173 21.0006 14.5659 20.9687C15.0227 20.9363 15.4535 20.8664 15.8647 20.6842L15.0547 18.8556C14.9464 18.9035 14.7774 18.9487 14.4242 18.9738C14.0629 18.9994 13.5944 19 12.9 19V21ZM15.6583 18.3416C15.5406 18.5424 15.3373 18.7304 15.0547 18.8556L15.8647 20.6842C16.496 20.4046 17.0358 19.9467 17.3837 19.353L15.6583 18.3416ZM1 6.22222H2.21429V4.22222H1V6.22222ZM2.21429 6.22222H16.7857V4.22222H2.21429V6.22222ZM16.7857 6.22222H18V4.22222H16.7857V6.22222ZM6.25 4.37778C6.25 3.26658 7.47865 2 9.5 2V0C6.82693 0 4.25 1.75798 4.25 4.37778H6.25ZM9.5 2C11.5214 2 12.75 3.26658 12.75 4.37778H14.75C14.75 1.75798 12.1731 0 9.5 0V2ZM4.25 4.37778V5.22222H6.25V4.37778H4.25ZM12.75 4.37778V5.22222H14.75V4.37778H12.75Z" fill="#E51717"/>
</svg>
