<svg width="28" height="28" viewBox="0 0 28 28" fill="none" xmlns="http://www.w3.org/2000/svg">
<path d="M27 14C27 21.4558 21.4558 27 14 27C6.54416 27 1 21.4558 1 14C1 6.54416 6.54416 1 14 1C21.4558 1 27 6.54416 27 14Z" stroke="#192A39"/>
<path d="M25.2712 7.51988C21.6997 1.30331 13.7361 -0.843961 7.52059 2.72516C1.37381 6.25703 -0.796573 14.0809 2.60846 20.2669L2.61674 20.281C2.65235 20.3464 2.68879 20.4118 2.72605 20.4764C4.44413 23.4662 7.27948 25.651 10.6084 26.5501C13.9372 27.4493 17.487 26.9892 20.4766 25.2711C23.4663 23.553 25.651 20.7175 26.5502 17.3885C27.4493 14.0595 26.9892 10.5097 25.2712 7.51988ZM8.18057 3.87374C13.7634 0.665672 20.9147 2.60012 24.1226 8.18237C25.3986 10.3912 25.9517 12.5778 25.6181 15.1069L18.4553 12.5C18.3128 11.5737 17.7664 10.7475 17.0573 10.1348C16.3482 9.52201 15.4441 9.18184 14.5069 9.17521H13.4106C12.4734 9.18184 11.5693 9.52201 10.8602 10.1348C10.1511 10.7475 9.64246 11.5737 9.5 12.5L2.34048 15.1069C2.04818 12.8183 2.51687 10.8762 3.54226 8.80945C4.56766 6.74268 6.18146 5.0254 8.18057 3.87374ZM24.5 18.5L18.4553 16.5V14.3087L25.3283 16.8087C25.3093 16.8866 25.2894 16.9644 25.2687 17.0414C25.0735 17.7615 25 18 24.5 18.5ZM3.47328 18.6903C3 18 2.86307 17.6144 2.66395 16.8137L9.53695 14.3136L9.5 16.5L3.47328 18.6903ZM4.16855 20.3033L9.62804 18.3159C9.81506 19.1527 10.2715 19.905 10.9273 20.4573C11.0842 20.5882 11.2107 20.7517 11.2978 20.9365C11.3849 21.1213 11.4306 21.3229 11.4316 21.5273V25.3837C8.43531 24.7129 5.82507 22.8862 4.16855 20.3008V20.3033ZM13.1974 25.5866C13.1974 25.5816 13.1974 25.5759 13.1974 25.5709V21.5132C13.1964 21.1156 13.1084 20.7231 12.9396 20.3632C12.7708 20.0033 12.5253 19.6846 12.2203 19.4297C11.9314 19.1872 11.6992 18.8845 11.5398 18.5427C11.3805 18.2009 11.2979 17.8284 11.2978 17.4513V13.3638C11.3209 12.6915 11.3628 12.0741 11.8449 11.6051C12.3271 11.136 12.7745 10.8683 13.4471 10.8638H14.5435C15.2164 10.8683 15.6538 11.1164 16.136 11.5858C16.6182 12.0552 16.6685 12.6714 16.6912 13.3439C16.6912 13.3671 16.6912 13.3903 16.6912 13.4127V17.4298C16.6908 17.8063 16.6082 18.1782 16.4492 18.5195C16.2901 18.8608 16.0584 19.1632 15.7703 19.4057C15.4652 19.6606 15.2196 19.9792 15.0506 20.3391C14.8817 20.699 14.7935 21.0916 14.7924 21.4892C14.7912 21.8868 14.7924 25.4848 14.7924 25.5063C14.7924 25.5278 14.7924 25.5494 14.7924 25.5709C13.9695 25.6574 14.0166 25.6773 13.1941 25.5874L13.1974 25.5866ZM19.8167 24.1217C18.8003 24.7073 17.7011 25.1355 16.5565 25.392V21.5273C16.5578 21.3228 16.6038 21.1211 16.6912 20.9363C16.7786 20.7515 16.9053 20.588 17.0625 20.4573C17.7184 19.9048 18.1749 19.1521 18.3617 18.315L23.827 20.3025C22.8182 21.8809 21.4422 23.1908 19.8167 24.1217Z" fill="#192A39"/>
</svg>
