<svg width="30" height="30" viewBox="0 0 30 30" fill="none" xmlns="http://www.w3.org/2000/svg">
<path d="M9 25H21.5C22.9045 25 23.6067 25 24.1111 24.6629C24.3295 24.517 24.517 24.3295 24.6629 24.1111C25 23.6067 25 22.9045 25 21.5C25 20.0955 25 19.3933 24.6629 18.8889C24.517 18.6705 24.3295 18.483 24.1111 18.3371C23.6067 18 22.9045 18 21.5 18H14C13.0572 18 12.5858 18 12.2929 17.7071C12 17.4142 12 16.9428 12 16V8.5C12 7.09554 12 6.39331 11.6629 5.88886C11.517 5.67048 11.3295 5.48298 11.1111 5.33706C10.6067 5 9.90446 5 8.5 5C7.09554 5 6.39331 5 5.88886 5.33706C5.67048 5.48298 5.48298 5.67048 5.33706 5.88886C5 6.39331 5 7.09554 5 8.5L5 21C5 22.8856 5 23.8284 5.58579 24.4142C6.17157 25 7.11438 25 9 25Z" stroke="#999999" stroke-width="2.5" stroke-linecap="round"/>
<path d="M5 15L7 15M5 9L7 9M5 18L8 18M5 12L8 12" stroke="#999999" stroke-width="2" stroke-linecap="round"/>
<path d="M15 25V23M21 25V23M18 25L18 22M12 25L12 22" stroke="#999999" stroke-width="2" stroke-linecap="round"/>
</svg>
