<svg width="17" height="21" viewBox="0 0 17 21" fill="none" xmlns="http://www.w3.org/2000/svg">
<path fill-rule="evenodd" clip-rule="evenodd" d="M5.37508 5.29183C5.37508 3.56594 6.77419 2.16683 8.50008 2.16683C10.226 2.16683 11.6251 3.56594 11.6251 5.29183C11.6251 7.01772 10.226 8.41683 8.50008 8.41683C6.77419 8.41683 5.37508 7.01772 5.37508 5.29183ZM8.50008 0.0834961C5.6236 0.0834961 3.29175 2.41535 3.29175 5.29183C3.29175 8.16831 5.6236 10.5002 8.50008 10.5002C11.3766 10.5002 13.7084 8.16831 13.7084 5.29183C13.7084 2.41535 11.3766 0.0834961 8.50008 0.0834961ZM2.25008 19.8752C2.25008 16.4234 5.0483 13.6252 8.50008 13.6252C11.9519 13.6252 14.7501 16.4234 14.7501 19.8752C14.7501 20.4505 15.2165 20.9168 15.7917 20.9168C16.367 20.9168 16.8334 20.4505 16.8334 19.8752C16.8334 15.2728 13.1025 11.5418 8.50008 11.5418C3.89771 11.5418 0.166748 15.2728 0.166748 19.8752C0.166748 20.4505 0.633118 20.9168 1.20841 20.9168C1.78371 20.9168 2.25008 20.4505 2.25008 19.8752Z" fill="black"/>
</svg>
