<svg width="28" height="34" viewBox="0 0 28 34" fill="none" xmlns="http://www.w3.org/2000/svg">
<path d="M9.99984 16.9999C9.99984 19.3011 8.13436 21.1666 5.83317 21.1666C3.53198 21.1666 1.6665 19.3011 1.6665 16.9999C1.6665 14.6987 3.53198 12.8333 5.83317 12.8333C8.13436 12.8333 9.99984 14.6987 9.99984 16.9999Z" stroke="white" stroke-width="2.5"/>
<path d="M18.3333 7.83325L10 13.6666" stroke="white" stroke-width="2.5" stroke-linecap="round"/>
<path d="M18.3333 26.1667L10 20.3334" stroke="white" stroke-width="2.5" stroke-linecap="round"/>
<path d="M26.6668 27.8334C26.6668 30.1346 24.8013 32.0001 22.5002 32.0001C20.199 32.0001 18.3335 30.1346 18.3335 27.8334C18.3335 25.5322 20.199 23.6667 22.5002 23.6667C24.8013 23.6667 26.6668 25.5322 26.6668 27.8334Z" stroke="white" stroke-width="2.5"/>
<path d="M26.6668 6.16667C26.6668 8.46785 24.8013 10.3333 22.5002 10.3333C20.199 10.3333 18.3335 8.46785 18.3335 6.16667C18.3335 3.86548 20.199 2 22.5002 2C24.8013 2 26.6668 3.86548 26.6668 6.16667Z" stroke="white" stroke-width="2.5"/>
</svg>
