<svg width="36" height="30" viewBox="0 0 36 30" fill="none" xmlns="http://www.w3.org/2000/svg">
<path d="M29.6668 28.3335V25.8335M6.3335 28.3335V25.8335" stroke="black" stroke-width="2.5" stroke-linecap="round"/>
<path d="M1.3335 20C1.3335 18.4469 1.3335 17.6703 1.58723 17.0577C1.92554 16.241 2.57446 15.592 3.39122 15.2537C4.00379 15 4.78036 15 6.3335 15H29.6668C31.22 15 31.9965 15 32.6091 15.2537C33.4259 15.592 34.0748 16.241 34.4131 17.0577C34.6668 17.6703 34.6668 18.4469 34.6668 20C34.6668 21.5531 34.6668 22.3297 34.4131 22.9423C34.0748 23.759 33.4259 24.408 32.6091 24.7463C31.9965 25 31.22 25 29.6668 25H6.3335C4.78036 25 4.00379 25 3.39122 24.7463C2.57446 24.408 1.92554 23.759 1.58723 22.9423C1.3335 22.3297 1.3335 21.5531 1.3335 20Z" stroke="black" stroke-width="2.5"/>
<path d="M33 14.9998C33 8.71444 33 5.57175 31.0474 3.61913C29.0948 1.6665 25.9521 1.6665 19.6667 1.6665H16.3333C10.0479 1.6665 6.90524 1.6665 4.95262 3.61913C3 5.57175 3 8.71444 3 14.9998" stroke="black" stroke-width="2.5"/>
<path d="M28.8332 15.0002V12.5002C28.8332 9.35747 28.8332 7.78612 27.8569 6.80981C26.8805 5.8335 25.3092 5.8335 22.1665 5.8335H13.8332C10.6905 5.8335 9.11913 5.8335 8.14281 6.80981C7.1665 7.78612 7.1665 9.35747 7.1665 12.5002V15.0002" stroke="black" stroke-width="2.5"/>
<path d="M18 6.6665V14.9998" stroke="black" stroke-width="2.5"/>
</svg>
