<svg width="17" height="20" viewBox="0 0 17 20" fill="none" xmlns="http://www.w3.org/2000/svg">
<path d="M6.60409 3.13C6.33888 3.17774 6.10349 3.32888 5.94971 3.55017C5.79593 3.77147 5.73635 4.04478 5.78409 4.31C5.83183 4.57522 5.98297 4.81061 6.20426 4.96439C6.42556 5.11817 6.69887 5.17774 6.96409 5.13C7.29443 5.07293 7.62887 5.04283 7.96409 5.04C9.55539 5.04 11.0815 5.67214 12.2067 6.79736C13.332 7.92258 13.9641 9.4487 13.9641 11.04C13.9613 11.3752 13.9312 11.7097 13.8741 12.04C13.8273 12.2998 13.8852 12.5675 14.0351 12.7848C14.1849 13.0021 14.4146 13.1514 14.6741 13.2H14.8541C15.0909 13.2039 15.3214 13.1236 15.5045 12.9734C15.6876 12.8232 15.8115 12.613 15.8541 12.38C15.9469 11.9257 15.9971 11.4637 16.0041 11C15.9995 9.21977 15.4013 7.49193 14.3041 6.09L15.2141 5.19C15.4024 5.0017 15.5082 4.7463 15.5082 4.48C15.5082 4.2137 15.4024 3.9583 15.2141 3.77C15.0258 3.5817 14.7704 3.47591 14.5041 3.47591C14.2378 3.47591 13.9824 3.5817 13.7941 3.77L12.8941 4.68C11.495 3.59417 9.77511 3.00329 8.00409 3C7.53437 2.9991 7.06562 3.04263 6.60409 3.13ZM6.00409 2H10.0041C10.2693 2 10.5237 1.89464 10.7112 1.70711C10.8987 1.51957 11.0041 1.26522 11.0041 1C11.0041 0.734784 10.8987 0.48043 10.7112 0.292893C10.5237 0.105357 10.2693 0 10.0041 0H6.00409C5.73887 0 5.48452 0.105357 5.29698 0.292893C5.10945 0.48043 5.00409 0.734784 5.00409 1C5.00409 1.26522 5.10945 1.51957 5.29698 1.70711C5.48452 1.89464 5.73887 2 6.00409 2ZM9.49409 11.08C9.49409 11.08 9.49409 11.03 9.49409 11C9.49409 10.97 9.49409 10.95 9.49409 10.92L10.8341 9.59C10.9273 9.49676 11.0013 9.38607 11.0518 9.26425C11.1022 9.14243 11.1282 9.01186 11.1282 8.88C11.1282 8.74814 11.1022 8.61757 11.0518 8.49575C11.0013 8.37393 10.9273 8.26324 10.8341 8.17C10.7409 8.07676 10.6302 8.0028 10.5083 7.95234C10.3865 7.90188 10.2559 7.87591 10.1241 7.87591C9.99223 7.87591 9.86166 7.90188 9.73984 7.95234C9.61802 8.0028 9.50733 8.07676 9.41409 8.17L8.08409 9.5H7.92409L1.71409 3.29C1.52579 3.1017 1.27039 2.99591 1.00409 2.99591C0.73779 2.99591 0.482395 3.1017 0.294091 3.29C0.105788 3.4783 1.9841e-09 3.7337 0 4C-1.9841e-09 4.2663 0.105788 4.5217 0.294091 4.71L0.774091 5.19L1.68409 6.1C0.497561 7.6396 -0.0878467 9.55853 0.0372412 11.4983C0.162329 13.438 0.989356 15.2658 2.3638 16.6403C3.73825 18.0147 5.5661 18.8418 7.50583 18.9669C9.44557 19.0919 11.3645 18.5065 12.9041 17.32L14.2941 18.71C14.3871 18.8037 14.4977 18.8781 14.6195 18.9289C14.7414 18.9797 14.8721 19.0058 15.0041 19.0058C15.1361 19.0058 15.2668 18.9797 15.3887 18.9289C15.5105 18.8781 15.6211 18.8037 15.7141 18.71C15.8078 18.617 15.8822 18.5064 15.933 18.3846C15.9838 18.2627 16.0099 18.132 16.0099 18C16.0099 17.868 15.9838 17.7373 15.933 17.6154C15.8822 17.4936 15.8078 17.383 15.7141 17.29L9.49409 11.08ZM8.00409 17C6.89895 17.0031 5.81443 16.7008 4.87014 16.1266C3.92586 15.5525 3.15851 14.7286 2.65272 13.746C2.14694 12.7634 1.92236 11.6602 2.00377 10.558C2.08518 9.45588 2.46942 8.39764 3.11409 7.5L6.51409 10.89C6.51409 10.89 6.51409 10.94 6.51409 10.97C6.51011 11.1687 6.54564 11.3661 6.61862 11.5509C6.69159 11.7357 6.80055 11.9042 6.93918 12.0466C7.0778 12.1889 7.24333 12.3023 7.42614 12.3801C7.60895 12.458 7.8054 12.4987 8.00409 12.5H8.08409L11.4741 15.9C10.4592 16.6172 9.24676 17.0015 8.00409 17Z" fill="#899DA5"/>
</svg>
