<svg width="25" height="21" viewBox="0 0 25 21" fill="none" xmlns="http://www.w3.org/2000/svg">
<path d="M15.6005 0.490205C13.8622 0.802705 12.3632 1.90622 11.5673 3.45895C11.3378 3.90329 11.1083 4.59665 11.0351 5.06052C11.0058 5.24606 10.9716 5.40231 10.9618 5.41208C10.957 5.42185 9.12102 4.49899 6.88469 3.36618C3.91106 1.85739 2.7636 1.30075 2.60735 1.28122C2.17766 1.23239 1.72844 1.53024 1.61614 1.9404C1.5136 2.29685 1.59173 2.5947 1.84075 2.8486C1.94329 2.95603 3.55462 3.79587 6.84563 5.46579C12.2021 8.18552 11.9677 8.08298 12.4316 7.86325C12.5829 7.78513 12.705 7.67771 12.8027 7.52634C12.9443 7.30661 12.9491 7.29685 12.9101 6.86228C12.8368 6.03708 12.8613 5.38767 12.9833 4.98239C13.413 3.58103 14.497 2.61423 15.9228 2.36521C17.0165 2.17478 18.0566 2.49216 19.0038 3.29294C19.4579 3.68356 19.6825 3.7861 19.9657 3.74704C20.2294 3.71286 23.1396 2.65329 23.3495 2.51169C23.5937 2.35544 23.7304 2.07712 23.7304 1.74997C23.7304 1.24216 23.3984 0.875947 22.9003 0.841768C22.6366 0.822237 22.5195 0.856416 21.3866 1.26657C20.7177 1.51071 20.1415 1.71091 20.1171 1.71091C20.0927 1.71091 19.9706 1.63278 19.8437 1.54001C19.2968 1.12009 18.579 0.778291 17.8368 0.582979C17.4072 0.470674 16.0351 0.41208 15.6005 0.490205Z" fill="#606060"/>
<path d="M23.7012 3.02449C23.4033 3.16121 20.6055 5.10945 20.4248 5.30964C20.2441 5.50984 20.1416 5.90535 20.1855 6.22273C20.2344 6.52058 20.1367 7.85359 20.0195 8.54206C19.5703 11.1593 18.3008 13.5714 16.4209 15.3829C15.4492 16.3204 14.6143 16.9014 13.4033 17.4874C11.6895 18.3175 10.0586 18.6739 8.00781 18.6739C6.86523 18.669 6.06445 18.5762 5.10254 18.337C4.44336 18.171 3.55469 17.8634 3.59863 17.8194C3.61816 17.7999 4.63379 17.5069 5.85449 17.17C7.07031 16.8282 8.125 16.5206 8.19824 16.4864C8.34473 16.4083 8.55469 16.1885 8.6377 16.0323C8.71094 15.8858 8.70605 15.461 8.62305 15.2706C8.48633 14.9337 7.98828 14.6505 7.65137 14.7188C7.57812 14.7335 5.97168 15.1778 4.08691 15.7051C1.68945 16.3692 0.595703 16.6964 0.444336 16.7891C0.161133 16.9649 0.0244141 17.2237 0.0244141 17.5899C0.0292969 18.1075 0.317383 18.3614 1.66992 19.045C3.28613 19.8653 4.89746 20.3341 6.70898 20.5147C7.53906 20.5977 9.41406 20.544 10.2295 20.4219C11.8604 20.168 13.0664 19.7872 14.458 19.0938C18.8086 16.9161 21.8506 12.1358 22.0557 7.1407L22.085 6.39851L23.4033 5.48542C24.8145 4.50398 24.9414 4.38191 24.9902 3.98152C25.0391 3.54695 24.7412 3.09773 24.3311 2.98542C24.0723 2.91218 23.9307 2.92195 23.7012 3.02449Z" fill="#606060"/>
<path d="M1.54295 6.91113C1.31346 6.99414 1.08397 7.19922 0.996078 7.40918C0.913071 7.59961 0.908188 8.02441 0.98143 8.1709C1.05956 8.32715 1.2744 8.54688 1.416 8.62012C1.65038 8.74219 3.73534 9.28906 3.96483 9.28906C4.24803 9.28906 4.58495 9.1084 4.73143 8.87402C5.00487 8.4248 4.84373 7.78027 4.3994 7.5459C4.23338 7.46289 1.96776 6.83789 1.83592 6.83789C1.77733 6.84277 1.65038 6.87207 1.54295 6.91113Z" fill="#606060"/>
<path d="M4.07726 11.4766C3.42784 11.5059 3.20812 11.5303 3.07628 11.5987C2.68566 11.794 2.51964 12.0821 2.54894 12.5069C2.57335 12.8731 2.74425 13.1367 3.05675 13.2832C3.28624 13.3955 3.29113 13.3955 4.54113 13.3516C5.77159 13.3028 5.79601 13.3028 6.01573 13.1709C6.13781 13.0977 6.28429 12.9658 6.34288 12.878C6.64073 12.3994 6.44542 11.75 5.93273 11.5205C5.71788 11.4229 5.5421 11.418 4.07726 11.4766Z" fill="#606060"/>
</svg>
