<svg width="23" height="34" viewBox="0 0 23 34" fill="none" xmlns="http://www.w3.org/2000/svg">
<path d="M2 14C2 8.34315 2 5.51472 3.39124 3.75736C4.78249 2 7.02166 2 11.5 2C15.9783 2 18.2175 2 19.6088 3.75736C21 5.51472 21 8.34315 21 14V20C21 25.6569 21 28.4853 19.6088 30.2426C18.2175 32 15.9783 32 11.5 32C7.02166 32 4.78249 32 3.39124 30.2426C2 28.4853 2 25.6569 2 20V14Z" stroke="#606060" stroke-width="3"/>
<path d="M12 28.5C12.8284 28.5 13.5 27.8284 13.5 27C13.5 26.1716 12.8284 25.5 12 25.5V28.5ZM11 25.5C10.1716 25.5 9.5 26.1716 9.5 27C9.5 27.8284 10.1716 28.5 11 28.5V25.5ZM12 25.5H11V28.5H12V25.5Z" fill="#606060"/>
</svg>
