<svg width="18" height="23" viewBox="0 0 18 23" fill="none" xmlns="http://www.w3.org/2000/svg">
<path fill-rule="evenodd" clip-rule="evenodd" d="M9 1.25C6.37665 1.25 4.25 3.37665 4.25 6C4.25 8.62335 6.37665 10.75 9 10.75C11.6234 10.75 13.75 8.62335 13.75 6C13.75 3.37665 11.6234 1.25 9 1.25ZM5.75 6C5.75 4.20507 7.20507 2.75 9 2.75C10.7949 2.75 12.25 4.20507 12.25 6C12.25 7.79493 10.7949 9.25 9 9.25C7.20507 9.25 5.75 7.79493 5.75 6Z" fill="#00D39C"/>
<path fill-rule="evenodd" clip-rule="evenodd" d="M9 12.25C6.96067 12.25 5.07752 12.7208 3.67815 13.5204C2.3 14.3079 1.25 15.5101 1.25 17C1.25 18.4899 2.3 19.6921 3.67815 20.4796C5.07752 21.2792 6.96067 21.75 9 21.75C11.0393 21.75 12.9225 21.2792 14.3219 20.4796C15.7 19.6921 16.75 18.4899 16.75 17C16.75 15.5101 15.7 14.3079 14.3219 13.5204C12.9225 12.7208 11.0393 12.25 9 12.25ZM2.75 17C2.75 16.2807 3.26701 15.483 4.42236 14.8228C5.55649 14.1747 7.17334 13.75 9 13.75C10.8267 13.75 12.4435 14.1747 13.5776 14.8228C14.733 15.483 15.25 16.2807 15.25 17C15.25 17.7193 14.733 18.517 13.5776 19.1772C12.4435 19.8253 10.8267 20.25 9 20.25C7.17334 20.25 5.55649 19.8253 4.42236 19.1772C3.26701 18.517 2.75 17.7193 2.75 17Z" fill="#00D39C"/>
<path fill-rule="evenodd" clip-rule="evenodd" d="M9 1.25C6.37665 1.25 4.25 3.37665 4.25 6C4.25 8.62335 6.37665 10.75 9 10.75C11.6234 10.75 13.75 8.62335 13.75 6C13.75 3.37665 11.6234 1.25 9 1.25ZM5.75 6C5.75 4.20507 7.20507 2.75 9 2.75C10.7949 2.75 12.25 4.20507 12.25 6C12.25 7.79493 10.7949 9.25 9 9.25C7.20507 9.25 5.75 7.79493 5.75 6Z" stroke="#00D39C"/>
<path fill-rule="evenodd" clip-rule="evenodd" d="M9 12.25C6.96067 12.25 5.07752 12.7208 3.67815 13.5204C2.3 14.3079 1.25 15.5101 1.25 17C1.25 18.4899 2.3 19.6921 3.67815 20.4796C5.07752 21.2792 6.96067 21.75 9 21.75C11.0393 21.75 12.9225 21.2792 14.3219 20.4796C15.7 19.6921 16.75 18.4899 16.75 17C16.75 15.5101 15.7 14.3079 14.3219 13.5204C12.9225 12.7208 11.0393 12.25 9 12.25ZM2.75 17C2.75 16.2807 3.26701 15.483 4.42236 14.8228C5.55649 14.1747 7.17334 13.75 9 13.75C10.8267 13.75 12.4435 14.1747 13.5776 14.8228C14.733 15.483 15.25 16.2807 15.25 17C15.25 17.7193 14.733 18.517 13.5776 19.1772C12.4435 19.8253 10.8267 20.25 9 20.25C7.17334 20.25 5.55649 19.8253 4.42236 19.1772C3.26701 18.517 2.75 17.7193 2.75 17Z" stroke="#00D39C"/>
</svg>
