<svg width="25" height="25" viewBox="0 0 25 25" fill="none" xmlns="http://www.w3.org/2000/svg">
<path d="M0.610416 3.26653C0.107486 3.49113 -0.126889 4.08195 0.0928376 4.56535C0.239322 4.89738 13.2032 21.5575 13.4083 21.6845C13.9112 21.9921 14.5899 21.7724 14.8487 21.2157C14.9317 21.0302 14.9415 20.8349 14.9415 17.7782V14.5361L15.2247 14.7997C15.8301 15.3759 23.1592 21.6113 23.3497 21.7138C23.7208 21.9189 24.2237 21.8261 24.5362 21.4941C24.712 21.3036 24.795 21.0888 24.7999 20.8056C24.8096 20.332 24.8878 20.4101 20.9424 17.0361C18.9307 15.3173 17.2852 13.8964 17.2852 13.8866C17.2852 13.872 18.9796 11.8163 21.0499 9.31633C23.1202 6.82121 24.8536 4.68254 24.9073 4.57024C25.0684 4.21379 25.0049 3.82317 24.7266 3.51555C24.3995 3.15422 23.8428 3.07121 23.4522 3.33C23.3399 3.40324 21.5821 5.48332 19.1163 8.46184L14.9659 13.4765L14.9415 8.65227L14.9171 3.83293L14.7755 3.62785C14.6876 3.49602 14.5508 3.37883 14.3897 3.29582C14.1505 3.17863 14.1065 3.17375 13.2862 3.17375C12.3145 3.17375 12.1583 3.2177 11.8799 3.5302C11.6016 3.85246 11.5528 4.2382 11.7432 4.62395C11.9141 4.96086 12.1534 5.12199 12.5928 5.19035L12.9395 5.24406V11.5429C12.9395 17.705 12.9395 17.8417 12.8467 17.7489C12.7979 17.6952 10.3126 14.497 7.32428 10.6445C4.336 6.79192 1.83112 3.57414 1.76276 3.49602C1.48444 3.1884 0.991275 3.09074 0.610416 3.26653Z" fill="#606060"/>
</svg>
